<?xml version="1.0" standalone="no"?>
<!DOCTYPE svg PUBLIC "-//W3C//DTD SVG 1.1//EN" "http://www.w3.org/Graphics/SVG/1.1/DTD/svg11.dtd" >
<svg xmlns="http://www.w3.org/2000/svg" xmlns:xlink="http://www.w3.org/1999/xlink" version="1.1">
<metadata>
Created by FontForge 20170731 at Thu Oct  8 12:19:14 2015
 By Aleksey,,,
(c) 2011 Klim Type Foundry. All rights reserved.
</metadata>
<defs>
<font id="Calibre-Black" horiz-adv-x="1024" >
  <font-face 
    font-family="Copyright Klim Type Foundry"
    font-weight="900"
    font-stretch="normal"
    units-per-em="2048"
    panose-1="2 0 0 0 0 0 0 0 0 0"
    ascent="1638"
    descent="-410"
    x-height="930"
    cap-height="1257"
    bbox="-121 -367 1823 1772"
    underline-thickness="102"
    underline-position="-919"
    unicode-range="U+000D-25FC"
  />
<missing-glyph horiz-adv-x="748" 
d="M68 0v1365h544v-1365h-544zM136 68h408v1229h-408v-1229z" />
    <glyph glyph-name=".notdef" horiz-adv-x="748" 
d="M68 0v1365h544v-1365h-544zM136 68h408v1229h-408v-1229z" />
    <glyph glyph-name="glyph1" horiz-adv-x="0" 
 />
    <glyph glyph-name="uni000D" unicode="&#xd;" horiz-adv-x="382" 
 />
    <glyph glyph-name="glyph3" horiz-adv-x="0" 
 />
    <glyph glyph-name="glyph3" horiz-adv-x="0" 
 />
    <glyph glyph-name="space" unicode=" " horiz-adv-x="382" 
 />
    <glyph glyph-name="exclam" unicode="!" horiz-adv-x="536" 
d="M31 1257h475l-84 -821h-307zM47 190q0 43 17.5 81t47 66t69.5 43t87 15q45 0 86 -15t71 -43t47 -66t17 -81t-17 -80.5t-47 -65.5t-71 -43t-86 -15q-47 0 -87 15t-69.5 43t-47 65.5t-17.5 80.5z" />
    <glyph glyph-name="quotedbl" unicode="&#x22;" horiz-adv-x="790" 
d="M68 705v552h290v-552h-290zM432 705v552h291v-552h-291z" />
    <glyph glyph-name="numbersign" unicode="#" horiz-adv-x="1341" 
d="M41 311l55 232h201l41 172h-203l53 231h205l74 311h262l-76 -311h185l75 311h261l-74 -311h200l-55 -231h-201l-40 -172h202l-53 -232h-205l-74 -311h-262l74 311h-184l-74 -311h-260l74 311h-201zM557 543h184l41 172h-184z" />
    <glyph glyph-name="dollar" unicode="$" horiz-adv-x="1091" 
d="M33 385h387q14 -39 50 -59.5t89 -20.5q20 0 38.5 5t32 14.5t21.5 21.5t8 29q0 39 -24.5 52t-71.5 24l-203 47q-66 14 -122 40.5t-98 67.5t-65.5 100.5t-23.5 141.5q0 92 37 165.5t101.5 126t152.5 81.5q27 8 53 14v186h307v-190q14 -4 31 -10q86 -27 147.5 -76t98.5 -118
t51 -150h-366q-16 35 -48 54t-79 19q-23 0 -42.5 -5t-32.5 -13t-20.5 -20.5t-7.5 -26.5t5 -24.5t13.5 -17.5t20.5 -11.5t27 -8.5l233 -59q160 -41 237 -128t77 -235q0 -94 -38 -167.5t-103.5 -124t-155.5 -76.5q-23 -8 -48 -15v-186h-307v188q-111 25 -192 84
q-139 100 -170 281z" />
    <glyph glyph-name="percent" unicode="%" horiz-adv-x="1415" 
d="M41 965q0 66 24.5 123t65.5 99t97.5 66.5t119.5 24.5q66 0 123 -24.5t99 -66.5t67 -99t25 -123q0 -63 -25 -120t-67 -97.5t-99 -65.5t-123 -25q-63 0 -119.5 25t-97.5 65.5t-65.5 97t-24.5 120.5zM190 0l838 1257h197l-838 -1257h-197zM254 965q0 -18 7 -36t20.5 -31
t31 -20.5t35.5 -7.5q20 0 39 7.5t32 20.5t21.5 30.5t8.5 36.5q0 41 -30 70.5t-71 29.5q-18 0 -35.5 -8t-31 -21.5t-20.5 -32t-7 -38.5zM754 293q0 63 24.5 119.5t66.5 97.5t99 65.5t123 24.5q63 0 119.5 -24.5t97.5 -65.5t65.5 -97.5t24.5 -119.5q0 -66 -24.5 -123
t-65.5 -99t-97.5 -66.5t-119.5 -24.5q-66 0 -123 24.5t-99 66.5t-66.5 99t-24.5 123zM967 293q0 -41 29.5 -70.5t70.5 -29.5q18 0 35.5 8t31 21.5t20.5 32t7 38.5q0 18 -7 35.5t-20.5 31t-31 20.5t-35.5 7q-20 0 -38.5 -7t-32 -20.5t-21.5 -31t-8 -35.5z" />
    <glyph glyph-name="ampersand" unicode="&#x26;" horiz-adv-x="1249" 
d="M41 385q0 55 15.5 107.5t44 97.5t67.5 82q25 23 53 41q-10 18 -18 37q-16 37 -23.5 73.5t-7.5 75.5q0 86 33 155.5t93 120t143 77t186 26.5q100 0 181 -28.5t138.5 -80t92 -122t42.5 -152.5h-372q-4 31 -22.5 54.5t-59.5 23.5t-59.5 -22.5t-18.5 -53.5q0 -35 22.5 -66.5
t51.5 -66.5l198 -244q27 72 27 160h336q0 -154 -62 -283q-35 -78 -84 -141l211 -256h-415l-46 51q-20 -10 -43 -20q-121 -51 -243 -51q-104 0 -189.5 26.5t-146 78.5t-93 127t-32.5 173zM393 385q0 -23 7.5 -42t21.5 -34.5t36.5 -25t51.5 -9.5q35 0 74 11l-162 182l-4 -4
q-10 -14 -17.5 -33.5t-7.5 -44.5z" />
    <glyph glyph-name="quotesingle" unicode="'" horiz-adv-x="446" 
d="M68 705v552h311v-552h-311z" />
    <glyph glyph-name="parenleft" unicode="(" horiz-adv-x="702" 
d="M61 580q0 147 42 273t120 222t188.5 162t250.5 94v-348q-57 -23 -103.5 -56.5t-80.5 -81.5t-52 -113.5t-18 -151.5t18 -152t52 -114t80 -81.5t104 -56.5v-348q-139 29 -250 94.5t-189 161.5t-120 222.5t-42 273.5z" />
    <glyph glyph-name="parenright" unicode=")" horiz-adv-x="702" 
d="M41 -172v348q57 23 103 56.5t80 81.5t52.5 114t18.5 152t-18.5 151.5t-52.5 113.5t-80 82t-103 56v348q139 -29 249.5 -94.5t188.5 -161.5t120 -222t42 -273t-42 -273.5t-120 -222.5t-188.5 -161.5t-249.5 -94.5z" />
    <glyph glyph-name="asterisk" unicode="*" horiz-adv-x="700" 
d="M41 946l135 78l-135 78l88 151l133 -77v155h176v-155l133 77l88 -151l-135 -78l135 -78l-88 -151l-133 77v-155h-176v155l-133 -77z" />
    <glyph glyph-name="plus" unicode="+" horiz-adv-x="1128" 
d="M78 473v281h346v346h281v-346h346v-281h-346v-346h-281v346h-346z" />
    <glyph glyph-name="comma" unicode="," horiz-adv-x="485" 
d="M20 -205l156 240q-59 12 -105 60t-46 128q0 90 62.5 147.5t156.5 57.5q86 0 151.5 -58.5t65.5 -168.5q0 -66 -25.5 -125.5t-62.5 -114.5l-109 -166h-244z" />
    <glyph glyph-name="hyphen" unicode="-" horiz-adv-x="628" 
d="M68 377v317h493v-317h-493z" />
    <glyph glyph-name="period" unicode="." horiz-adv-x="485" 
d="M25 207q0 96 62.5 158.5t154.5 62.5q45 0 86 -16.5t69.5 -46t46 -70.5t17.5 -88t-17.5 -87t-46 -70t-69.5 -47t-86 -17t-85 17t-69 47t-46 70t-17 87z" />
    <glyph glyph-name="slash" unicode="/" horiz-adv-x="849" 
d="M10 -172l508 1503h322l-508 -1503h-322z" />
    <glyph glyph-name="zero" unicode="0" horiz-adv-x="1167" 
d="M35 629q0 143 40 263t112.5 206t174 133t222.5 47t222 -47t174 -133t113 -206t40 -263t-40 -263t-113 -206t-174 -133t-222 -47t-222.5 47t-174 133t-112.5 205.5t-40 263.5zM418 629q0 -57 8 -112.5t28.5 -98.5t51.5 -68.5t78 -25.5q45 0 76.5 25.5t51 68.5t28 98
t8.5 113q0 57 -8.5 112.5t-28 98.5t-51 68.5t-76.5 25.5q-47 0 -78 -25.5t-51.5 -68.5t-28.5 -98.5t-8 -112.5z" />
    <glyph glyph-name="one" unicode="1" horiz-adv-x="798" 
d="M20 705v368l400 184h276v-1257h-385v844z" />
    <glyph glyph-name="two" unicode="2" horiz-adv-x="1030" 
d="M12 846q8 88 46 166t99.5 137t147.5 94t195 35t197.5 -29.5t151 -83t97.5 -128t35 -165.5q0 -63 -18.5 -115t-50 -98.5t-73.5 -88.5t-89 -83l-170 -147h397v-340h-957v254l467 438q23 20 40.5 39t28.5 36t16.5 35t5.5 38q0 35 -20.5 58.5t-55.5 23.5q-39 0 -58.5 -24
t-21.5 -52h-410z" />
    <glyph glyph-name="three" unicode="3" 
d="M14 420h398q4 -47 28.5 -78t73.5 -31q41 0 67.5 25.5t26.5 66.5q0 25 -9 43.5t-26.5 29.5t-41 16.5t-50.5 5.5h-78v270h66q27 0 50.5 5t41 16.5t27.5 29t10 43.5q0 39 -23.5 63.5t-66.5 24.5q-47 0 -73.5 -31.5t-33.5 -72.5h-374q8 86 46 165t101.5 138t151.5 94t200 35
q102 0 185.5 -29.5t141.5 -83t90 -128t32 -165.5q0 -35 -10.5 -71.5t-26.5 -68.5t-37.5 -59.5t-46.5 -43.5q31 -16 56.5 -42t42 -57.5t25.5 -69.5t9 -81q0 -86 -32.5 -160t-93 -127t-147.5 -82.5t-194 -29.5q-115 0 -206 31.5t-155.5 89t-101.5 139.5t-43 180z" />
    <glyph glyph-name="four" unicode="4" horiz-adv-x="1081" 
d="M31 217v297l327 743h371l-283 -720h119v163h334v-163h152v-320h-152v-217h-334v217h-534z" />
    <glyph glyph-name="five" unicode="5" horiz-adv-x="1042" 
d="M29 420h387q4 -51 34.5 -81t84.5 -30q23 0 42 8.5t32.5 21.5t21.5 33.5t8 45.5q0 23 -7 42t-21.5 34.5t-36 24.5t-48.5 9q-33 0 -59.5 -13t-48.5 -34h-326v776h813v-333h-495v-121q29 12 74.5 22.5t99.5 10.5q100 0 178 -31t132 -86t83 -131t29 -168q0 -100 -34 -182
t-95.5 -139.5t-149.5 -88t-197 -30.5q-115 0 -204.5 31.5t-153 89t-100.5 139.5t-43 180z" />
    <glyph glyph-name="six" unicode="6" horiz-adv-x="1075" 
d="M37 600q0 147 34.5 271t100.5 215.5t163 141.5t222 50q197 0 318.5 -106.5t148.5 -282.5h-367q-10 29 -32.5 47t-63.5 18q-31 0 -54.5 -11t-38.5 -27.5t-28.5 -42t-21.5 -70.5q-2 -18 -2 -17v-8q12 10 31.5 20.5t44 17.5t55.5 11t67 4q96 0 174 -30.5t132.5 -83.5
t84 -127t29.5 -160q0 -98 -34.5 -181t-98 -142.5t-154 -93t-200.5 -33.5q-127 0 -226.5 51t-162.5 137q-66 86 -93.5 193.5t-27.5 238.5zM416 420q0 -29 10 -51.5t27.5 -40t42 -26.5t53.5 -9q27 0 51.5 9t43 26.5t28.5 40t10 51.5t-10 52.5t-28.5 40.5t-43.5 26.5t-51 9.5
q-29 0 -53.5 -9.5t-42 -26.5t-27.5 -40.5t-10 -52.5z" />
    <glyph glyph-name="seven" unicode="7" horiz-adv-x="974" 
d="M20 920v337h914v-256l-352 -1001h-400l328 920h-490z" />
    <glyph glyph-name="eight" unicode="8" horiz-adv-x="1060" 
d="M33 350q0 51 14 95t39 80t58.5 62.5t74.5 43.5q-74 41 -109.5 111.5t-35.5 154.5q0 92 36.5 164t100 120t146.5 72.5t173 24.5t173 -24.5t145.5 -72.5t100.5 -120t38 -164q0 -84 -36 -154.5t-109 -111.5q41 -16 74.5 -43t58 -63t39 -80t14.5 -95q0 -88 -39 -156.5
t-106.5 -116.5t-159 -72.5t-193.5 -24.5t-193 24.5t-158.5 72.5t-106.5 116.5t-39 156.5zM414 381q0 -23 9 -40t24.5 -31.5t36.5 -21.5t46 -7t46.5 7t37 21.5t24.5 31.5t9 40t-9 41t-24.5 31.5t-37 20.5t-46.5 7t-46 -7t-36.5 -20.5t-24.5 -32t-9 -40.5zM420 889
q0 -20 8 -39t22.5 -32t34.5 -20t45 -7t45.5 7t35 20t22.5 31.5t8 39.5q0 20 -8 38.5t-22.5 33t-35 21.5t-45.5 7t-45 -7t-34.5 -21.5t-22.5 -33t-8 -38.5z" />
    <glyph glyph-name="nine" unicode="9" horiz-adv-x="1075" 
d="M41 827q0 98 35 181.5t98.5 142.5t153.5 93t200 34q127 0 226.5 -51t163.5 -137q66 -86 93 -194t27 -239q0 -147 -34.5 -271t-100 -215t-163 -141t-222.5 -50q-197 0 -318.5 106.5t-148.5 282.5h367q10 -29 32.5 -47.5t63.5 -18.5q61 0 101 48t44 128q-66 -53 -198 -53
q-96 0 -174 30.5t-132.5 84t-84 127t-29.5 159.5zM393 838q0 -29 10.5 -52.5t29 -41t42 -26.5t51.5 -9q29 0 53.5 9t42 26.5t27.5 41t10 52.5q0 27 -10 50t-27.5 40.5t-42 27t-53.5 9.5t-52 -9.5t-41.5 -27t-29 -41t-10.5 -49.5z" />
    <glyph glyph-name="colon" unicode=":" horiz-adv-x="485" 
d="M25 207q0 96 62.5 158.5t154.5 62.5q45 0 86 -16.5t69.5 -46t46 -70.5t17.5 -88t-17.5 -87t-46 -70t-69.5 -47t-86 -17t-85 17t-69 47t-46 70t-17 87zM25 709q0 96 62.5 158.5t154.5 62.5q45 0 86 -16.5t69.5 -46t46 -70.5t17.5 -88t-17.5 -87t-46 -70t-69.5 -47.5
t-86 -17.5t-85 17.5t-69 47.5t-46 70t-17 87z" />
    <glyph glyph-name="semicolon" unicode=";" horiz-adv-x="485" 
d="M20 -205l156 240q-59 12 -105 60t-46 128q0 90 62.5 147.5t156.5 57.5q86 0 151.5 -58.5t65.5 -168.5q0 -66 -25.5 -125.5t-62.5 -114.5l-109 -166h-244zM25 709q0 96 62.5 158.5t154.5 62.5q45 0 86 -16.5t69.5 -46t46 -70.5t17.5 -88t-17.5 -87t-46 -70t-69.5 -47.5
t-86 -17.5t-85 17.5t-69 47.5t-46 70t-17 87z" />
    <glyph glyph-name="less" unicode="&#x3c;" horiz-adv-x="872" 
d="M57 438v340l742 314v-310l-475 -174l475 -174v-309z" />
    <glyph glyph-name="equal" unicode="=" horiz-adv-x="1169" 
d="M98 287v248h973v-248h-973zM98 700v250h973v-250h-973z" />
    <glyph glyph-name="greater" unicode="&#x3e;" horiz-adv-x="872" 
d="M74 125v309l475 174l-475 174v310l741 -314v-340z" />
    <glyph glyph-name="question" unicode="?" horiz-adv-x="1013" 
d="M20 846q8 88 43 166t96.5 137t150.5 94t206 35q100 0 184 -26.5t144.5 -76t94.5 -121t34 -161.5q0 -57 -19.5 -105.5t-48 -91.5t-63.5 -83t-66 -81q-25 -35 -33 -56t-10 -40h-387q0 20 4 39t13.5 41.5t27 49t43.5 61.5q29 37 52.5 66.5t41 54t27.5 48t10 48.5
q0 35 -20.5 55.5t-48.5 20.5q-37 0 -56.5 -24t-21.5 -50h-398zM313 190q0 45 17.5 82t47.5 65t69.5 43t87.5 15q96 0 160.5 -56t64.5 -149q0 -88 -64.5 -146t-160.5 -58q-47 0 -87 15t-70 43t-47.5 65.5t-17.5 80.5z" />
    <glyph glyph-name="at" unicode="@" horiz-adv-x="1536" 
d="M31 389q0 162 56 303.5t159.5 248t248 167.5t320.5 61q154 0 281 -46t218 -128t141 -193.5t50 -240.5q0 -127 -33.5 -221t-93 -158.5t-139.5 -96.5t-174 -32q-72 0 -137.5 24.5t-108.5 76.5q-37 -49 -93 -71t-116 -22q-70 0 -122 25t-87.5 68t-53 101t-17.5 126
q0 88 26.5 169t76.5 142.5t121 97t159 35.5q53 0 102 -20.5t72 -52.5l10 59h303l-90 -512q-6 -37 5 -55.5t40 -18.5q43 0 78 21.5t59.5 64.5t37.5 105.5t13 144.5q0 109 -40.5 193t-111.5 141t-167 87t-209 30q-135 0 -247.5 -45t-193.5 -127t-125 -197t-44 -254
q0 -160 57 -266.5t146.5 -169t198 -88t210.5 -25.5q143 0 252 28t207 71v-158q-78 -39 -198 -67.5t-261 -28.5q-152 0 -293 41t-250.5 127t-176 219t-66.5 317zM641 412q0 -41 20.5 -68t65.5 -27q33 0 55.5 15.5t34.5 38.5l25 145q-4 23 -26.5 37t-51.5 14q-25 0 -47.5 -11
t-38.5 -31.5t-26.5 -49.5t-10.5 -63z" />
    <glyph glyph-name="A" unicode="A" horiz-adv-x="1363" 
d="M0 0l475 1257h414l475 -1257h-401l-66 182h-442l-66 -182h-389zM571 504h209l-104 289z" />
    <glyph glyph-name="B" unicode="B" horiz-adv-x="1146" 
d="M68 0v1257h598q199 0 306 -86t107 -256q0 -51 -13 -94t-36.5 -76.5t-54.5 -58.5t-66 -37q45 -14 82 -42.5t64.5 -67.5t43 -87.5t15.5 -103.5q0 -168 -107.5 -258t-306.5 -90h-632zM442 322h193q47 0 73.5 23.5t26.5 60.5q0 41 -26.5 63.5t-73.5 22.5h-193v-170zM442 776
h166q49 0 76 20.5t27 61.5t-27 60.5t-76 19.5h-166v-162z" />
    <glyph glyph-name="C" unicode="C" horiz-adv-x="1241" 
d="M29 629q0 141 46 260t128 206t196.5 135t251.5 48q125 0 222.5 -36t167 -97.5t112.5 -144t59 -179.5h-397q-16 51 -58 81t-106 30q-53 0 -95 -22.5t-70.5 -63.5t-43 -96.5t-14.5 -120.5q0 -66 14.5 -121t43 -95t70.5 -63.5t95 -23.5q63 0 105.5 29.5t58.5 82.5h397
q-16 -96 -59 -180t-112.5 -145.5t-167 -97t-222.5 -35.5q-137 0 -251.5 48t-196.5 135t-128 206t-46 260z" />
    <glyph glyph-name="D" unicode="D" horiz-adv-x="1249" 
d="M68 0v1257h505q154 0 274 -44t203 -125.5t127 -198.5t44 -260t-44 -260t-127 -199t-203 -126t-274 -44h-505zM457 340h96q66 0 117 20.5t87 58.5t54 91t18 119q0 68 -18 121t-54 91t-87.5 58.5t-116.5 20.5h-96v-580z" />
    <glyph glyph-name="E" unicode="E" horiz-adv-x="1069" 
d="M68 0v1257h946v-337h-555v-119h508v-328h-508v-133h555v-340h-946z" />
    <glyph glyph-name="F" unicode="F" horiz-adv-x="1056" 
d="M68 0v1257h931v-342h-540v-176h491v-331h-491v-408h-391z" />
    <glyph glyph-name="G" unicode="G" horiz-adv-x="1280" 
d="M29 629q0 143 46 262t131 205t202.5 134t261.5 48q129 0 229 -35t172 -96.5t117 -145t61 -182.5h-407q-18 53 -62.5 83t-109.5 30q-59 0 -104.5 -22.5t-76 -63.5t-46 -96.5t-15.5 -120.5q0 -70 16.5 -126.5t48 -95t76.5 -60t101 -21.5q66 0 122 19.5t80 57.5h-167v281
h546v-139q0 -131 -42 -235.5t-117.5 -178.5t-183 -112.5t-238.5 -38.5q-143 0 -261 48t-203 134t-131 204.5t-46 262.5z" />
    <glyph glyph-name="H" unicode="H" horiz-adv-x="1329" 
d="M68 0v1257h397v-452h399v452h398v-1257h-398v467h-399v-467h-397z" />
    <glyph glyph-name="I" unicode="I" horiz-adv-x="532" 
d="M68 0v1257h397v-1257h-397z" />
    <glyph glyph-name="J" unicode="J" horiz-adv-x="1173" 
d="M31 492h399q2 -78 40 -119t103 -41q39 0 68 12t45 35.5t24.5 57.5t8.5 79v741h397v-745q0 -141 -42 -242.5t-115.5 -166t-173 -94t-212.5 -29.5q-123 0 -222 36.5t-169.5 104t-109.5 162t-41 209.5z" />
    <glyph glyph-name="K" unicode="K" horiz-adv-x="1275" 
d="M68 0v1257h397v-466l338 466h454l-401 -540l420 -717h-459l-260 451l-92 -125v-326h-397z" />
    <glyph glyph-name="L" unicode="L" horiz-adv-x="1050" 
d="M68 0v1257h397v-917h541v-340h-938z" />
    <glyph glyph-name="M" unicode="M" horiz-adv-x="1550" 
d="M68 0v1257h493l213 -673l215 673h494v-1257h-369v674l-215 -674h-250l-213 674v-674h-368z" />
    <glyph glyph-name="N" unicode="N" horiz-adv-x="1302" 
d="M68 0v1257h370l414 -585v585h383v-1257h-326l-458 629v-629h-383z" />
    <glyph glyph-name="O" unicode="O" horiz-adv-x="1325" 
d="M29 629q0 141 46 260t129 206t199.5 135t258.5 48q141 0 257.5 -48t200.5 -135t130 -206t46 -260t-46 -260t-130 -205t-200.5 -135t-257.5 -49t-258 49t-200 135t-129 204.5t-46 260.5zM428 629q0 -72 16.5 -127.5t47 -95t73.5 -60t97 -20.5q51 0 95 20.5t74.5 60t48 95
t17.5 127.5q0 70 -17.5 126t-48 96t-74.5 60.5t-95 20.5q-53 0 -96.5 -20.5t-74 -60.5t-47 -96.5t-16.5 -125.5z" />
    <glyph glyph-name="P" unicode="P" horiz-adv-x="1169" 
d="M68 0v1257h589q104 0 191.5 -29.5t150 -88t97 -143.5t34.5 -195q0 -111 -34.5 -196t-97 -143.5t-149.5 -88t-192 -29.5h-198v-344h-391zM459 674h145q78 0 111 34t33 93t-33 93t-111 34h-145v-254z" />
    <glyph glyph-name="Q" unicode="Q" horiz-adv-x="1325" 
d="M29 629q0 141 46 260t129 206t199.5 135t258.5 48q141 0 257.5 -48t200.5 -135t130 -206t46 -260q0 -139 -51 -258q-41 -98 -110 -176l86 -105l-228 -186l-98 119q-111 -43 -233 -43q-141 0 -258 49t-200 135t-129 204.5t-46 260.5zM428 629q0 -72 16.5 -131.5t47 -102.5
t73.5 -67.5t97 -24.5h6l-95 117l230 184l82 -123q14 35 14 148q0 70 -17.5 126t-49 96t-75.5 60.5t-95 20.5q-53 0 -96.5 -20.5t-74 -60.5t-47 -96.5t-16.5 -125.5z" />
    <glyph glyph-name="R" unicode="R" horiz-adv-x="1198" 
d="M68 0v1257h612q104 0 190 -30.5t149.5 -89t98.5 -144.5t35 -194q0 -104 -35 -185.5t-98 -138.5q-37 -33 -82 -55l260 -420h-436l-211 360h-92v-360h-391zM459 672h168q78 0 109.5 34.5t31.5 92.5q0 59 -31.5 94t-109.5 35h-168v-256z" />
    <glyph glyph-name="S" unicode="S" horiz-adv-x="1142" 
d="M16 387h414q14 -47 54 -70.5t102 -23.5q27 0 50 5t39.5 15.5t27 25.5t10.5 36q0 33 -22.5 45t-59.5 20l-258 54q-72 14 -133.5 40.5t-105.5 69.5t-68.5 103.5t-24.5 142.5q0 100 40 179t109.5 134.5t164 85t202.5 29.5q123 0 219 -33t164 -88t106.5 -129t51.5 -158h-387
q-16 43 -52 70t-100 27q-27 0 -48.5 -4.5t-36.5 -13.5t-23.5 -22.5t-8.5 -31.5q0 -14 5.5 -24.5t14.5 -18.5t22.5 -13t27.5 -8l262 -61q170 -41 254 -132t84 -239q0 -102 -41 -180t-111.5 -131t-164 -80.5t-199.5 -27.5q-242 0 -394.5 107.5t-185.5 299.5z" />
    <glyph glyph-name="T" unicode="T" horiz-adv-x="1196" 
d="M29 920v337h1138v-337h-370v-920h-398v920h-370z" />
    <glyph glyph-name="U" unicode="U" horiz-adv-x="1261" 
d="M57 520v737h396v-702q0 -53 13 -94t35.5 -70t55.5 -43t74 -14q39 0 72.5 14t56 43t36 70t13.5 94v702h395v-737q0 -129 -40 -230.5t-114.5 -170t-181 -104t-237.5 -35.5t-237.5 35.5t-181.5 104t-115 170t-40 230.5z" />
    <glyph glyph-name="V" unicode="V" horiz-adv-x="1320" 
d="M0 1257h426l242 -714l243 714h410l-465 -1257h-391z" />
    <glyph glyph-name="W" unicode="W" horiz-adv-x="1732" 
d="M0 1257h410l147 -630l166 630h295l166 -630l145 630h404l-336 -1257h-361l-170 643l-172 -643h-360z" />
    <glyph glyph-name="X" unicode="X" horiz-adv-x="1273" 
d="M-2 0l412 643l-392 614h439l184 -309l188 309h426l-391 -614l412 -643h-438l-207 338l-205 -338h-428z" />
    <glyph glyph-name="Y" unicode="Y" horiz-adv-x="1294" 
d="M0 1257h430l225 -448l226 448h413l-450 -843v-414h-400v414z" />
    <glyph glyph-name="Z" unicode="Z" horiz-adv-x="1163" 
d="M55 0v299l539 621h-533v337h1041v-296l-527 -621h533v-340h-1053z" />
    <glyph glyph-name="bracketleft" unicode="[" horiz-adv-x="698" 
d="M68 -172v1503h589v-313h-227v-877h227v-313h-589z" />
    <glyph glyph-name="backslash" unicode="\" horiz-adv-x="849" 
d="M10 1331h322l508 -1503h-322z" />
    <glyph glyph-name="bracketright" unicode="]" horiz-adv-x="698" 
d="M41 141h227v877h-227v313h590v-1503h-590v313z" />
    <glyph glyph-name="asciicircum" unicode="^" horiz-adv-x="933" 
d="M20 733l299 524h295l299 -524h-315l-131 254l-131 -254h-316z" />
    <glyph glyph-name="underscore" unicode="_" horiz-adv-x="780" 
d="M41 -86h698v-281h-698v281z" />
    <glyph glyph-name="grave" unicode="`" 
d="M244 1331h360l174 -321h-360z" />
    <glyph glyph-name="a" unicode="a" horiz-adv-x="1001" 
d="M25 281q0 68 27.5 122t74.5 91.5t112.5 58t139.5 20.5q55 0 112.5 -14t86.5 -35v51q0 29 -17.5 54.5t-60.5 25.5q-35 0 -53.5 -14t-26.5 -35h-365q8 72 44 134.5t94.5 109.5t139.5 74.5t181 27.5q211 0 325.5 -105.5t114.5 -297.5v-549h-376v45q-23 -23 -85.5 -42
t-134.5 -19q-68 0 -128 18t-106 55t-72.5 92.5t-26.5 131.5zM381 289q0 -16 8 -28.5t20.5 -21t29 -12.5t32.5 -4q18 0 34.5 3t30 9.5t24.5 14.5t18 18v41q-6 10 -17.5 18.5t-25 14.5t-30 9t-34.5 3q-16 0 -32.5 -4t-29 -12t-20.5 -20.5t-8 -28.5z" />
    <glyph glyph-name="b" unicode="b" horiz-adv-x="1103" 
d="M63 0v1331h390v-473q16 18 40.5 34.5t53 29t62.5 20.5t69 8q98 0 174 -38t127 -104.5t76.5 -154.5t25.5 -188t-25.5 -188.5t-76.5 -155t-127 -104t-174 -37.5q-35 0 -69 8t-62.5 20t-53 28.5t-40.5 35.5v-72h-390zM453 373q12 -29 39.5 -47.5t68.5 -18.5q31 0 55.5 12.5
t41 33t25.5 49t9 63.5q0 33 -9 62.5t-25.5 50t-41 33t-55.5 12.5q-37 0 -66.5 -18.5t-41.5 -47.5v-184z" />
    <glyph glyph-name="c" unicode="c" horiz-adv-x="987" 
d="M23 465q0 106 34.5 196.5t98 154t153.5 99t201 35.5q100 0 180 -29.5t138.5 -82t92 -125t44.5 -160.5h-373q-4 31 -23.5 54.5t-60.5 23.5q-23 0 -42.5 -11.5t-32.5 -32t-20 -52t-7 -70.5q0 -41 7 -72t20 -51t32.5 -31.5t42.5 -11.5q41 0 60.5 23.5t23.5 54.5h373
q-10 -88 -44 -161t-92.5 -125t-138.5 -81.5t-180 -29.5q-111 0 -201 35.5t-153.5 99t-98 152.5t-34.5 198z" />
    <glyph glyph-name="d" unicode="d" horiz-adv-x="1103" 
d="M23 465q0 100 25.5 188t76.5 154.5t127 104.5t174 38q35 0 68.5 -8t62.5 -20.5t53.5 -28.5t40.5 -35v473h389v-1331h-389v72q-16 -18 -40.5 -35t-53.5 -29t-62.5 -20t-68.5 -8q-98 0 -174 37.5t-127 104t-76.5 155t-25.5 188.5zM412 465q0 -35 9 -63.5t25.5 -49t41 -33
t55.5 -12.5q41 0 68.5 18.5t39.5 47.5v184q-12 29 -41.5 47.5t-66.5 18.5q-31 0 -55.5 -12.5t-41 -33t-25.5 -50t-9 -62.5z" />
    <glyph glyph-name="e" unicode="e" horiz-adv-x="997" 
d="M23 465q0 111 35.5 200t100 152.5t153.5 98t194 34.5q113 0 200 -34.5t146 -96t91 -148.5t32 -192v-86h-582q6 -31 15.5 -52.5t23.5 -36.5t34.5 -22.5t45.5 -7.5q35 0 62.5 16.5t37.5 53.5h363q-27 -174 -148.5 -269t-314.5 -95q-113 0 -203 34.5t-153.5 99t-98 153.5
t-34.5 198zM401 559h201q-4 20 -11 37.5t-19.5 31t-29 20.5t-36.5 7t-36.5 -7t-30 -19.5t-22.5 -29.5t-16 -40z" />
    <glyph glyph-name="f" unicode="f" horiz-adv-x="718" 
d="M20 631v299h125v24q0 88 26 161t75 124t122.5 80t170.5 29q47 0 88 -7.5t71 -17.5v-309q-14 6 -28.5 9t-34.5 3q-47 0 -75 -22.5t-28 -69.5v-4h166v-299h-166v-631h-387v631h-125z" />
    <glyph glyph-name="g" unicode="g" horiz-adv-x="1079" 
d="M23 10h372q12 -35 41 -52t72 -17q53 0 88 27.5t35 94.5v82q-14 -18 -35 -33.5t-47.5 -27.5t-58 -19.5t-68.5 -7.5q-96 0 -170 33t-125 92.5t-77.5 141.5t-26.5 180t26.5 180t77.5 141.5t125 92t170 32.5q37 0 68.5 -7t58 -19.5t47 -27.5t35.5 -34v68h385v-764
q0 -125 -37 -218t-104.5 -155.5t-160.5 -94.5t-206 -32q-96 0 -178 22.5t-145.5 66.5t-105.5 107.5t-56 147.5zM403 504q0 -33 8.5 -60.5t25 -47t39 -30t50.5 -10.5q37 0 64.5 18.5t40.5 41.5v176q-12 23 -40 41t-65 18q-29 0 -51 -10t-38.5 -29.5t-25 -47t-8.5 -60.5z" />
    <glyph glyph-name="h" unicode="h" horiz-adv-x="1091" 
d="M63 0v1331h390v-477q39 43 104.5 69.5t142.5 26.5q154 0 242 -91t88 -247v-612h-389v508q0 41 -22.5 70.5t-67.5 29.5q-18 0 -33.5 -5t-29 -15t-22.5 -23.5t-13 -32.5v-532h-390z" />
    <glyph glyph-name="i" unicode="i" horiz-adv-x="516" 
d="M43 1165q0 96 63.5 148.5t151.5 52.5t151.5 -52.5t63.5 -148.5t-63.5 -148t-151.5 -52t-151.5 52t-63.5 148zM63 0v930h390v-930h-390z" />
    <glyph glyph-name="j" unicode="j" horiz-adv-x="516" 
d="M-68 -33q10 -2 18.5 -3t20.5 -1q23 0 40.5 4t28.5 14.5t17 28t6 43.5v877h390v-848q0 -199 -97.5 -307.5t-285.5 -108.5q-47 0 -79 4t-59 13v284zM43 1165q0 96 63.5 148.5t151.5 52.5t151.5 -52.5t63.5 -148.5t-63.5 -148t-151.5 -52t-151.5 52t-63.5 148z" />
    <glyph glyph-name="k" unicode="k" horiz-adv-x="1122" 
d="M63 0v1331h390v-653l200 252h459l-328 -379l336 -551h-440l-180 315l-47 -63v-252h-390z" />
    <glyph glyph-name="l" unicode="l" horiz-adv-x="516" 
d="M63 0v1331h390v-1331h-390z" />
    <glyph glyph-name="m" unicode="m" horiz-adv-x="1632" 
d="M63 0v930h390v-76q37 43 101 69.5t142 26.5q92 0 153.5 -28.5t106.5 -75.5q20 18 48 36.5t65 34t82 24.5t98 9q147 0 234.5 -91t87.5 -247v-612h-389v508q0 41 -18.5 70.5t-59.5 29.5q-33 0 -57.5 -20.5t-34.5 -55.5v-532h-389v508q0 41 -18.5 70.5t-59.5 29.5
q-33 0 -57.5 -20.5t-34.5 -55.5v-532h-390z" />
    <glyph glyph-name="n" unicode="n" horiz-adv-x="1091" 
d="M63 0v930h390v-76q39 43 104.5 69.5t142.5 26.5q154 0 242 -91t88 -247v-612h-389v508q0 41 -22.5 70.5t-67.5 29.5q-18 0 -33.5 -5t-29 -15t-22.5 -23.5t-13 -32.5v-532h-390z" />
    <glyph glyph-name="o" unicode="o" horiz-adv-x="1032" 
d="M23 465q0 109 35.5 198t101 153.5t156 99t200.5 34.5q111 0 202 -34.5t155.5 -99t100.5 -153.5t36 -198t-36 -198t-100.5 -153.5t-155.5 -99t-202 -34.5t-201 34.5t-155.5 99t-101 153.5t-35.5 198zM406 465q0 -37 7 -68.5t21.5 -53t34.5 -34t47 -12.5t48.5 12.5t35.5 34
t21.5 53t7.5 68.5t-7.5 68.5t-21.5 53t-35.5 34t-48.5 12.5t-47 -12.5t-34.5 -34t-21.5 -53t-7 -68.5z" />
    <glyph glyph-name="p" unicode="p" horiz-adv-x="1103" 
d="M63 -313v1243h390v-72q16 18 40.5 34.5t53 29t62.5 20.5t69 8q98 0 174 -38t127 -104.5t76.5 -154.5t25.5 -188t-25.5 -188.5t-76.5 -155t-127 -104t-174 -37.5q-35 0 -69 8t-62.5 20t-53 28.5t-40.5 35.5v-385h-390zM453 373q12 -29 41.5 -47.5t66.5 -18.5
q31 0 55.5 12.5t41 33t25.5 49t9 63.5q0 33 -9 62.5t-25.5 50t-41 33t-55.5 12.5q-41 0 -68.5 -18.5t-39.5 -47.5v-184z" />
    <glyph glyph-name="q" unicode="q" horiz-adv-x="1103" 
d="M23 465q0 100 25.5 188t76.5 154.5t127 104.5t174 38q35 0 68.5 -8t62.5 -20.5t53.5 -28.5t40.5 -35v72h389v-1243h-389v385q-16 -18 -40.5 -35t-53.5 -29t-62.5 -20t-68.5 -8q-98 0 -174 37.5t-127 104t-76.5 155t-25.5 188.5zM412 465q0 -35 9 -63.5t25.5 -49t41 -33
t55.5 -12.5q37 0 66.5 18.5t41.5 47.5v184q-12 29 -39.5 47.5t-68.5 18.5q-31 0 -55.5 -12.5t-41 -33t-25.5 -50t-9 -62.5z" />
    <glyph glyph-name="r" unicode="r" horiz-adv-x="778" 
d="M63 0v930h390v-76q37 43 89 69.5t124 26.5q29 0 49 -5t30 -11v-369q-35 16 -66.5 22.5t-74.5 6.5q-66 0 -103.5 -23.5t-47.5 -58.5v-512h-390z" />
    <glyph glyph-name="s" unicode="s" horiz-adv-x="940" 
d="M16 297h373q6 -29 28.5 -43t51.5 -14q12 0 22.5 2t17.5 6t12 11t5 17q0 18 -14 24.5t-37 10.5l-174 33q-127 25 -198.5 88.5t-71.5 190.5q0 82 33.5 143t91 102t133.5 61.5t162 20.5q207 0 318.5 -87t129.5 -232h-352q-4 23 -19.5 41t-60.5 18q-25 0 -39 -9t-14 -26
q0 -16 11 -23t34 -11l178 -41q131 -31 201.5 -99.5t70.5 -187.5q0 -78 -33.5 -136.5t-93 -97.5t-138.5 -59t-167 -20q-92 0 -172 19t-140.5 59t-99 99.5t-49.5 139.5z" />
    <glyph glyph-name="t" unicode="t" horiz-adv-x="759" 
d="M12 631v299h129v260h383v-260h187v-299h-187v-209q0 -53 22.5 -78t69.5 -25q25 0 48.5 3.5t46.5 9.5v-324q-29 -10 -82.5 -17t-108.5 -7q-190 0 -284.5 88t-94.5 286v273h-129z" />
    <glyph glyph-name="u" unicode="u" horiz-adv-x="1087" 
d="M61 317v613h390v-514q0 -41 20.5 -71t67.5 -30q33 0 59.5 20.5t36.5 55.5v539h389v-930h-387v76q-39 -43 -104.5 -69.5t-143.5 -26.5q-152 0 -240 91t-88 246z" />
    <glyph glyph-name="v" unicode="v" horiz-adv-x="1044" 
d="M0 930h393l142 -451l135 451h374l-354 -930h-336z" />
    <glyph glyph-name="w" unicode="w" horiz-adv-x="1484" 
d="M0 930h387l129 -416l125 416h217l125 -416l129 416h373l-318 -930h-311l-115 371l-112 -371h-312z" />
    <glyph glyph-name="x" unicode="x" horiz-adv-x="1046" 
d="M0 0l311 469l-305 461h414l110 -185l113 185h397l-307 -461l314 -469h-414l-119 193l-117 -193h-397z" />
    <glyph glyph-name="y" unicode="y" horiz-adv-x="1060" 
d="M0 930h401l142 -441l135 441h383l-473 -1243h-385l139 362z" />
    <glyph glyph-name="z" unicode="z" horiz-adv-x="942" 
d="M49 0v258l371 373h-365v299h834v-258l-346 -373h350v-299h-844z" />
    <glyph glyph-name="braceleft" unicode="{" horiz-adv-x="776" 
d="M41 424v311h82q59 0 59 60v270q0 119 74 192.5t190 73.5h289v-313h-147q-59 0 -60 -60v-208q0 -66 -27.5 -106t-68.5 -64q41 -25 68.5 -65t27.5 -105v-209q0 -59 60 -60h147v-313h-289q-117 0 -190.5 73.5t-73.5 192.5v271q0 59 -59 59h-82z" />
    <glyph glyph-name="bar" unicode="|" horiz-adv-x="444" 
d="M68 -172v1503h309v-1503h-309z" />
    <glyph glyph-name="braceright" unicode="}" horiz-adv-x="776" 
d="M41 141h147q59 0 60 60v209q0 66 27.5 105.5t68.5 64.5q-41 25 -68.5 64.5t-27.5 105.5v208q0 59 -60 60h-147v313h289q117 0 190.5 -73.5t73.5 -192.5v-270q0 -59 59 -60h82v-311h-82q-59 0 -59 -59v-271q0 -119 -74 -192.5t-190 -73.5h-289v313z" />
    <glyph glyph-name="asciitilde" unicode="~" horiz-adv-x="870" 
d="M51 397q0 170 60.5 264.5t175.5 94.5q47 0 80.5 -16.5t60.5 -37t50.5 -37t49.5 -16.5q35 0 51.5 20.5t16.5 73.5h223q0 -170 -60.5 -263t-172.5 -93q-49 0 -82 16.5t-59.5 37t-50 37t-50.5 16.5q-35 0 -52.5 -21.5t-17.5 -75.5h-223z" />
    <glyph glyph-name="uni00A0" unicode="&#xa0;" horiz-adv-x="382" 
 />
    <glyph glyph-name="exclamdown" unicode="&#xa1;" horiz-adv-x="536" 
d="M31 -197l84 822h307l84 -822h-475zM47 870q0 43 17.5 81t47 65.5t69.5 43t87 15.5q45 0 86 -15.5t71 -43t47 -65.5t17 -81t-17 -80.5t-47 -65.5t-71 -43t-86 -15q-47 0 -87 15t-69.5 43t-47 65.5t-17.5 80.5z" />
    <glyph glyph-name="cent" unicode="&#xa2;" horiz-adv-x="987" 
d="M23 485q0 106 34.5 196.5t98 154t153.5 98.5q20 8 43 16v205h307v-205l31 -10q80 -29 138.5 -81t92 -124.5t44.5 -161.5h-373q-4 31 -23.5 54.5t-60.5 23.5q-23 0 -42.5 -11t-32.5 -31.5t-20 -52.5t-7 -71q0 -41 7 -71.5t20 -51t32.5 -32t42.5 -11.5q41 0 60.5 24
t23.5 54h373q-10 -88 -44 -160.5t-92.5 -125t-138.5 -82.5q-16 -4 -31 -11v-186h-307v188q-23 6 -43 15q-90 37 -153.5 100.5t-98 152t-34.5 197.5z" />
    <glyph glyph-name="sterling" unicode="&#xa3;" horiz-adv-x="1042" 
d="M41 0v324h76q20 35 30 75q6 31 11 78h-117v289h117v78q0 94 28.5 174t82 138t132 90t181.5 32q96 0 172.5 -28.5t131 -81t84 -126t31.5 -161.5h-342q0 33 -14 55t-49 22t-52.5 -25.5t-17.5 -72.5v-94h197v-289h-199q-2 -37 -8 -71q-10 -51 -33 -82h512v-324h-954z" />
    <glyph glyph-name="yen" unicode="&#xa5;" horiz-adv-x="1200" 
d="M20 1257h431l157 -378l158 378h414l-287 -575h178v-207h-280v-80h280v-207h-280v-188h-388v188h-280v207h280v80h-280v207h178z" />
    <glyph glyph-name="section" unicode="&#xa7;" horiz-adv-x="995" 
d="M41 559q0 78 38 135.5t105 91.5q-35 35 -57.5 80t-22.5 105q0 72 30 128t83 96t125 61.5t156 21.5q201 0 305 -88t121 -232h-326q-4 31 -21.5 49.5t-52.5 18.5q-23 0 -41 -14.5t-18 -42.5q0 -12 4 -20.5t10 -14.5t13.5 -11t13.5 -10l239 -118q53 -27 92.5 -56.5t66 -63.5
t38.5 -74t12 -87q0 -78 -38.5 -135t-106.5 -92q35 -35 58.5 -80t23.5 -105q0 -72 -30 -128t-83 -96t-124.5 -61.5t-155.5 -21.5q-201 0 -305.5 87t-120.5 233h325q4 -31 21.5 -49.5t52.5 -18.5q23 0 41 14.5t18 42.5q0 23 -14 35.5t-27 20.5l-239 119q-53 27 -92 56.5
t-65.5 63t-39 73.5t-12.5 87zM385 590q0 -18 7 -33.5t36 -32.5l150 -86q16 6 24 18.5t8 26.5q0 18 -7 33.5t-36 32.5l-149 86q-16 -8 -24.5 -19.5t-8.5 -25.5z" />
    <glyph glyph-name="dieresis" unicode="&#xa8;" 
d="M137 1155q0 74 52.5 127t125.5 53q37 0 70 -14t57.5 -39t39 -57.5t14.5 -69.5q0 -74 -53.5 -126t-127.5 -52t-126 52t-52 126zM526 1155q0 74 52.5 127t126.5 53q37 0 69.5 -14t57 -39t39 -57.5t14.5 -69.5q0 -74 -53.5 -126t-126.5 -52q-74 0 -126.5 52t-52.5 126z" />
    <glyph glyph-name="copyright" unicode="&#xa9;" horiz-adv-x="1441" 
d="M72 629q0 141 51 260t139 206t207 135t252 48t252 -48t207 -135t139 -206t51 -260t-51 -260t-139 -206t-207 -135t-252 -48t-252 48t-207 135t-139 205.5t-51 260.5zM168 629q0 -121 44 -222.5t119 -175t175 -115.5t215 -42q113 0 214 42t176 115.5t119 175t44 222.5
t-44 222t-119 175t-176 116t-214 42q-115 0 -215 -42t-175 -116t-119 -175t-44 -222zM332 631q0 90 28.5 165.5t81 130t125 84t160.5 29.5q80 0 141.5 -22.5t105.5 -61t71.5 -91t37.5 -111.5h-252q-10 33 -36.5 51t-67.5 18q-72 0 -107.5 -54t-35.5 -138q0 -80 35.5 -135.5
t107.5 -55.5q41 0 67.5 18.5t36.5 53.5h252q-10 -61 -37.5 -113.5t-71.5 -91.5t-105.5 -61.5t-141.5 -22.5q-88 0 -160.5 30t-125 84t-81 129t-28.5 165z" />
    <glyph glyph-name="ordfeminine" unicode="&#xaa;" horiz-adv-x="679" 
d="M14 817q0 96 71 149.5t173 53.5q39 0 79 -10.5t60 -24.5v37q0 20 -13 37.5t-44 17.5q-47 0 -57 -39h-238q12 102 90 171t215 69q145 0 223 -71.5t78 -202.5v-379h-254v30q-16 -16 -59 -29.5t-94 -13.5q-45 0 -87 12.5t-74 38t-50.5 64.5t-18.5 90zM266 823
q0 -23 18.5 -33t41.5 -10t42 8.5t29 22.5v27q-10 12 -29.5 20t-41.5 8q-23 0 -41.5 -10t-18.5 -33z" />
    <glyph glyph-name="guillemotleft" unicode="&#xab;" horiz-adv-x="989" 
d="M51 455l189 344h307l-189 -344l189 -344h-307zM442 455l189 344h307l-188 -344l188 -344h-307z" />
    <glyph glyph-name="uni00AD" unicode="&#xad;" horiz-adv-x="657" 
d="M68 377v317h493v-317h-493z" />
    <glyph glyph-name="registered" unicode="&#xae;" horiz-adv-x="833" 
d="M45 903q0 82 29.5 150.5t80 119t118 78t143.5 27.5t143.5 -27.5t117.5 -78t79.5 -119t29.5 -150.5t-29.5 -150.5t-79.5 -118.5t-117.5 -78t-143.5 -28t-143.5 28t-118 78t-80 118.5t-29.5 150.5zM113 903q0 -68 23.5 -125t64.5 -99t96 -64.5t119 -22.5q63 0 118.5 22.5
t96.5 64.5t64.5 99t23.5 125t-23.5 125t-64.5 99t-96.5 64.5t-118.5 22.5t-118.5 -22.5t-96.5 -64.5t-64.5 -99t-23.5 -125zM256 709v393h193q66 0 107.5 -38t41.5 -106q0 -43 -18.5 -73.5t-51.5 -46.5l82 -129h-145l-66 112h-12v-112h-131zM387 926h37q23 0 34 7t11 25
t-11.5 26.5t-33.5 8.5h-37v-67z" />
    <glyph glyph-name="macron" unicode="&#xaf;" 
d="M236 1010v256h550v-256h-550z" />
    <glyph glyph-name="degree" unicode="&#xb0;" horiz-adv-x="749" 
d="M82 979q0 61 23.5 116.5t63.5 95.5t93 63.5t113 23.5q59 0 112.5 -23.5t93.5 -63.5t63.5 -95.5t23.5 -116.5t-23.5 -116.5t-63.5 -95.5t-93.5 -63.5t-112.5 -23.5t-112.5 23.5t-93.5 63.5t-63.5 95.5t-23.5 116.5zM266 979q0 -47 32 -81t77 -34t76.5 34t31.5 81t-31.5 81
t-76.5 34t-77 -34t-32 -81z" />
    <glyph glyph-name="plusminus" unicode="&#xb1;" horiz-adv-x="1159" 
d="M117 70v245h925v-245h-925zM117 674v246h338v256h247v-256h340v-246h-340v-256h-247v256h-338z" />
    <glyph glyph-name="uni00B2" unicode="&#xb2;" horiz-adv-x="663" 
d="M41 1012q6 51 27.5 97t59.5 82t90 56.5t118 20.5q131 0 211 -66.5t80 -173.5q0 -76 -40 -125t-93 -96l-91 -78h218v-207h-574v156l285 252q23 23 38 40t15 42q0 16 -10 29.5t-33 13.5q-20 0 -32.5 -13.5t-12.5 -29.5h-256z" />
    <glyph glyph-name="uni00B3" unicode="&#xb3;" horiz-adv-x="630" 
d="M20 772h246q2 -27 15.5 -44t42.5 -17q23 0 36 14t13 37q0 29 -18.5 39t-45.5 10h-59v160h49q29 0 48.5 12t19.5 43q0 18 -11.5 33.5t-38.5 15.5q-29 0 -43 -20.5t-18 -42.5h-231q6 51 26.5 97t56 81t87 56.5t116.5 21.5q135 0 209 -65.5t74 -176.5q0 -39 -20.5 -79
t-47.5 -58q35 -18 54.5 -55t19.5 -78q0 -111 -75.5 -178.5t-211.5 -67.5q-131 0 -208.5 71.5t-84.5 190.5z" />
    <glyph glyph-name="acute" unicode="&#xb4;" 
d="M244 1010l174 321h360l-174 -321h-360z" />
    <glyph glyph-name="paragraph" unicode="&#xb6;" horiz-adv-x="1155" 
d="M31 870q0 102 43 175t111.5 120t154.5 69.5t172 22.5h244v-1441h-244v667q-86 0 -172 22.5t-154.5 70t-111.5 120t-43 174.5zM844 -184v1441h243v-1441h-243z" />
    <glyph glyph-name="periodcentered" unicode="&#xb7;" horiz-adv-x="518" 
d="M41 532q0 96 62.5 159t154.5 63q45 0 86 -16.5t69.5 -46t46 -70.5t17.5 -89q0 -47 -17.5 -86.5t-46 -69.5t-69.5 -47.5t-86 -17.5t-85 17.5t-68.5 47.5t-46 69.5t-17.5 86.5z" />
    <glyph glyph-name="cedilla" unicode="&#xb8;" 
d="M260 -358l137 292h320l-137 -292h-320z" />
    <glyph glyph-name="uni00B9" unicode="&#xb9;" horiz-adv-x="503" 
d="M23 907v242l235 108h178v-735h-239v467z" />
    <glyph glyph-name="ordmasculine" unicode="&#xba;" horiz-adv-x="710" 
d="M14 944q0 74 24.5 135.5t70 105.5t109 68.5t138.5 24.5q76 0 139.5 -24.5t108.5 -68.5t69.5 -105.5t24.5 -135.5t-24.5 -135t-69.5 -105.5t-108.5 -69t-139.5 -24.5t-139 24.5t-108.5 69t-70 105.5t-24.5 135zM285 944q0 -49 18.5 -78.5t52.5 -29.5q35 0 53.5 29.5
t18.5 78.5t-18.5 80t-53.5 31t-53 -31t-18 -80z" />
    <glyph glyph-name="guillemotright" unicode="&#xbb;" horiz-adv-x="989" 
d="M51 111l189 344l-189 344h307l189 -344l-189 -344h-307zM442 111l189 344l-189 344h308l188 -344l-188 -344h-308z" />
    <glyph glyph-name="onequarter" unicode="&#xbc;" horiz-adv-x="1509" 
d="M39 907v242l235 108h179v-735h-240v467zM207 0l837 1257h197l-838 -1257h-196zM831 111v188l218 436h233l-192 -424h79v95h209v-95h95v-200h-95v-111h-209v111h-338z" />
    <glyph glyph-name="onehalf" unicode="&#xbd;" horiz-adv-x="1505" 
d="M39 907v242l235 108h179v-735h-240v467zM207 0l837 1257h197l-838 -1257h-196zM866 489q6 51 27.5 97.5t59.5 82.5t90.5 56t117.5 20q131 0 211 -66.5t80 -172.5q0 -76 -40 -125t-93 -96l-90 -78h217v-207h-574v156l285 252q23 23 38 39.5t15 41.5q0 16 -10 29.5
t-33 13.5q-20 0 -32.5 -13t-12.5 -30h-256z" />
    <glyph glyph-name="threequarters" unicode="&#xbe;" horiz-adv-x="1560" 
d="M37 772h246q2 -27 15 -44t42 -17q23 0 36 14t13 37q0 29 -18.5 39t-44.5 10h-60v160h49q29 0 48.5 12t19.5 43q0 18 -11.5 33.5t-37.5 15.5q-29 0 -43.5 -20.5t-18.5 -42.5h-231q6 51 26.5 97t56.5 81t87 56.5t117 21.5q135 0 208.5 -65.5t73.5 -176.5q0 -39 -20.5 -79
t-46.5 -58q35 -18 54 -55t19 -78q0 -111 -75.5 -178.5t-210.5 -67.5q-131 0 -209 71.5t-84 190.5zM258 0l838 1257h196l-837 -1257h-197zM883 111v188l217 436h233l-192 -424h80v95h209v-95h94v-200h-94v-111h-209v111h-338z" />
    <glyph glyph-name="questiondown" unicode="&#xbf;" horiz-adv-x="1013" 
d="M41 168q0 57 19.5 105.5t48 91.5t63.5 82.5t66 80.5q25 35 33 56.5t10 40.5h387q0 -20 -4.5 -39t-13.5 -41.5t-26.5 -49t-43.5 -61.5q-29 -37 -52.5 -66.5t-41 -54t-27.5 -48t-10 -48.5q0 -35 20 -55.5t49 -20.5q37 0 56.5 23.5t21.5 50.5h397q-8 -88 -43 -166t-96 -137
t-150.5 -94t-205.5 -35q-100 0 -184.5 26.5t-144.5 75.5t-94 121t-34 162zM254 870q0 88 64.5 146.5t160.5 58.5q47 0 87 -15.5t70 -43t47 -65.5t17 -81q0 -45 -17 -81.5t-47 -64.5t-70 -43t-87 -15q-96 0 -160.5 56t-64.5 148z" />
    <glyph glyph-name="Agrave" unicode="&#xc0;" horiz-adv-x="1363" 
d="M0 0l475 1257h414l475 -1257h-401l-66 182h-442l-66 -182h-389zM331 1638h381l174 -280h-380zM571 504h209l-104 289z" />
    <glyph glyph-name="Aacute" unicode="&#xc1;" horiz-adv-x="1363" 
d="M0 0l475 1257h414l475 -1257h-401l-66 182h-442l-66 -182h-389zM487 1358l175 280h380l-174 -280h-381zM571 504h209l-104 289z" />
    <glyph glyph-name="Acircumflex" unicode="&#xc2;" horiz-adv-x="1363" 
d="M0 0l475 1257h414l475 -1257h-401l-66 182h-442l-66 -182h-389zM303 1358l240 280h278l240 -280h-305l-74 76l-74 -76h-305zM571 504h209l-104 289z" />
    <glyph glyph-name="Atilde" unicode="&#xc3;" horiz-adv-x="1363" 
d="M0 0l475 1257h414l475 -1257h-401l-66 182h-442l-66 -182h-389zM344 1350q0 63 8 122.5t28.5 105.5t57.5 73.5t92 27.5q37 0 69 -8t61.5 -19.5t57 -19.5t52.5 -8q20 0 32.5 13.5t12.5 33.5h205q0 -63 -8 -122.5t-28.5 -105.5t-57.5 -74t-92 -28q-37 0 -69 8.5t-61.5 19.5
t-57 19.5t-52.5 8.5q-20 0 -32.5 -13.5t-12.5 -33.5h-205zM571 504h209l-104 289z" />
    <glyph glyph-name="Adieresis" unicode="&#xc4;" horiz-adv-x="1363" 
d="M0 0l475 1257h414l475 -1257h-401l-66 182h-442l-66 -182h-389zM295 1509q0 78 53 132.5t131 54.5t132.5 -54.5t54.5 -132.5t-54.5 -131t-132.5 -53t-131 53t-53 131zM571 504h209l-104 289zM698 1509q0 78 53.5 132.5t131.5 54.5t132 -54.5t54 -132.5t-54 -131t-132 -53
t-131.5 53t-53.5 131z" />
    <glyph glyph-name="Aring" unicode="&#xc5;" horiz-adv-x="1363" 
d="M0 0l475 1257h414l475 -1257h-401l-66 182h-442l-66 -182h-389zM442 1538q0 49 18.5 91t50.5 74t76 50.5t95 18.5t94 -18.5t76 -50.5t51.5 -74t18.5 -91t-18.5 -91t-51.5 -73t-76 -49t-94 -18t-95 18t-76 49t-50.5 73t-18.5 91zM571 504h209l-104 289zM616 1538
q0 -27 18.5 -46t47.5 -19q31 0 49.5 19t18.5 46q0 29 -18.5 48.5t-49.5 19.5q-29 0 -47.5 -19.5t-18.5 -48.5z" />
    <glyph glyph-name="AE" unicode="&#xc6;" horiz-adv-x="1878" 
d="M0 0l692 1257h1131v-337h-514v-119h467v-328h-467v-133h514v-340h-905v182h-402l-96 -182h-420zM688 504h230v428z" />
    <glyph glyph-name="Ccedilla" unicode="&#xc7;" horiz-adv-x="1241" 
d="M29 629q0 141 46 260t128 206t196.5 135t251.5 48q125 0 222.5 -36t167 -97.5t112.5 -144t59 -179.5h-397q-16 51 -58 81t-106 30q-53 0 -95 -22.5t-70.5 -63.5t-43 -96.5t-14.5 -120.5q0 -66 14.5 -121t43 -95t70.5 -63.5t95 -23.5q63 0 105.5 29.5t58.5 82.5h397
q-16 -96 -59 -180t-112.5 -145.5t-167 -97t-222.5 -35.5q-137 0 -251.5 48t-196.5 135t-128 206t-46 260zM358 -358l137 292h320l-137 -292h-320z" />
    <glyph glyph-name="Egrave" unicode="&#xc8;" horiz-adv-x="1069" 
d="M68 0v1257h946v-337h-555v-119h508v-328h-508v-133h555v-340h-946zM202 1638h381l174 -280h-380z" />
    <glyph glyph-name="Eacute" unicode="&#xc9;" horiz-adv-x="1069" 
d="M68 0v1257h946v-337h-555v-119h508v-328h-508v-133h555v-340h-946zM358 1358l175 280h380l-174 -280h-381z" />
    <glyph glyph-name="Ecircumflex" unicode="&#xca;" horiz-adv-x="1069" 
d="M68 0v1257h946v-337h-555v-119h508v-328h-508v-133h555v-340h-946zM174 1358l240 280h278l240 -280h-305l-74 76l-74 -76h-305z" />
    <glyph glyph-name="Edieresis" unicode="&#xcb;" horiz-adv-x="1069" 
d="M68 0v1257h946v-337h-555v-119h508v-328h-508v-133h555v-340h-946zM166 1509q0 78 53 132.5t131 54.5t132.5 -54.5t54.5 -132.5t-54.5 -131t-132.5 -53t-131 53t-53 131zM569 1509q0 78 53.5 132.5t131.5 54.5t132 -54.5t54 -132.5t-54 -131t-132 -53t-131.5 53
t-53.5 131z" />
    <glyph glyph-name="Igrave" unicode="&#xcc;" horiz-adv-x="532" 
d="M-84 1638h381l174 -280h-380zM68 0v1257h397v-1257h-397z" />
    <glyph glyph-name="Iacute" unicode="&#xcd;" horiz-adv-x="532" 
d="M68 0v1257h397v-1257h-397zM71 1358l175 280h380l-174 -280h-381z" />
    <glyph glyph-name="Icircumflex" unicode="&#xce;" horiz-adv-x="532" 
d="M-113 1358l240 280h278l240 -280h-305l-74 76l-74 -76h-305zM68 0v1257h397v-1257h-397z" />
    <glyph glyph-name="Idieresis" unicode="&#xcf;" horiz-adv-x="532" 
d="M-121 1509q0 78 53 132.5t131 54.5t132.5 -54.5t54.5 -132.5t-54.5 -131t-132.5 -53t-131 53t-53 131zM68 0v1257h397v-1257h-397zM282 1509q0 78 53.5 132.5t131.5 54.5t132 -54.5t54 -132.5t-54 -131t-132 -53t-131.5 53t-53.5 131z" />
    <glyph glyph-name="Eth" unicode="&#xd0;" horiz-adv-x="1284" 
d="M20 489v297h82v471h506q154 0 273.5 -44t202.5 -125.5t127 -198.5t44 -260t-44 -260t-127 -199t-202.5 -126t-273.5 -44h-506v489h-82zM492 340h96q66 0 117 20.5t86.5 58.5t54 91t18.5 119q0 68 -18.5 121t-54 91t-87 58.5t-116.5 20.5h-96v-134h143v-297h-143v-149z
" />
    <glyph glyph-name="Ntilde" unicode="&#xd1;" horiz-adv-x="1302" 
d="M68 0v1257h370l414 -585v585h383v-1257h-326l-458 629v-629h-383zM313 1350q0 63 8 122.5t28.5 105.5t57.5 73.5t92 27.5q37 0 69 -8t61.5 -19.5t57 -19.5t52.5 -8q20 0 32.5 13.5t12.5 33.5h205q0 -63 -8 -122.5t-28.5 -105.5t-57.5 -74t-92 -28q-37 0 -69 8.5
t-61.5 19.5t-57 19.5t-52.5 8.5q-20 0 -32.5 -13.5t-12.5 -33.5h-205z" />
    <glyph glyph-name="Ograve" unicode="&#xd2;" horiz-adv-x="1325" 
d="M29 629q0 141 46 260t129 206t199.5 135t258.5 48q141 0 257.5 -48t200.5 -135t130 -206t46 -260t-46 -260t-130 -205t-200.5 -135t-257.5 -49t-258 49t-200 135t-129 204.5t-46 260.5zM311 1638h381l174 -280h-380zM428 629q0 -72 16.5 -127.5t47 -95t73.5 -60t97 -20.5
q51 0 95 20.5t74.5 60t48 95t17.5 127.5q0 70 -17.5 126t-48 96t-74.5 60.5t-95 20.5q-53 0 -96.5 -20.5t-74 -60.5t-47 -96.5t-16.5 -125.5z" />
    <glyph glyph-name="Oacute" unicode="&#xd3;" horiz-adv-x="1325" 
d="M29 629q0 141 46 260t129 206t199.5 135t258.5 48q141 0 257.5 -48t200.5 -135t130 -206t46 -260t-46 -260t-130 -205t-200.5 -135t-257.5 -49t-258 49t-200 135t-129 204.5t-46 260.5zM428 629q0 -72 16.5 -127.5t47 -95t73.5 -60t97 -20.5q51 0 95 20.5t74.5 60t48 95
t17.5 127.5q0 70 -17.5 126t-48 96t-74.5 60.5t-95 20.5q-53 0 -96.5 -20.5t-74 -60.5t-47 -96.5t-16.5 -125.5zM466 1358l175 280h380l-174 -280h-381z" />
    <glyph glyph-name="Ocircumflex" unicode="&#xd4;" horiz-adv-x="1325" 
d="M29 629q0 141 46 260t129 206t199.5 135t258.5 48q141 0 257.5 -48t200.5 -135t130 -206t46 -260t-46 -260t-130 -205t-200.5 -135t-257.5 -49t-258 49t-200 135t-129 204.5t-46 260.5zM283 1358l240 280h278l240 -280h-305l-74 76l-74 -76h-305zM428 629
q0 -72 16.5 -127.5t47 -95t73.5 -60t97 -20.5q51 0 95 20.5t74.5 60t48 95t17.5 127.5q0 70 -17.5 126t-48 96t-74.5 60.5t-95 20.5q-53 0 -96.5 -20.5t-74 -60.5t-47 -96.5t-16.5 -125.5z" />
    <glyph glyph-name="Otilde" unicode="&#xd5;" horiz-adv-x="1325" 
d="M29 629q0 141 46 260t129 206t199.5 135t258.5 48q141 0 257.5 -48t200.5 -135t130 -206t46 -260t-46 -260t-130 -205t-200.5 -135t-257.5 -49t-258 49t-200 135t-129 204.5t-46 260.5zM324 1350q0 63 8 122.5t28.5 105.5t57.5 73.5t92 27.5q37 0 69 -8t61.5 -19.5
t57 -19.5t52.5 -8q20 0 32.5 13.5t12.5 33.5h205q0 -63 -8 -122.5t-28.5 -105.5t-57.5 -74t-92 -28q-37 0 -69 8.5t-61.5 19.5t-57 19.5t-52.5 8.5q-20 0 -32.5 -13.5t-12.5 -33.5h-205zM428 629q0 -72 16.5 -127.5t47 -95t73.5 -60t97 -20.5q51 0 95 20.5t74.5 60t48 95
t17.5 127.5q0 70 -17.5 126t-48 96t-74.5 60.5t-95 20.5q-53 0 -96.5 -20.5t-74 -60.5t-47 -96.5t-16.5 -125.5z" />
    <glyph glyph-name="Odieresis" unicode="&#xd6;" horiz-adv-x="1325" 
d="M29 629q0 141 46 260t129 206t199.5 135t258.5 48q141 0 257.5 -48t200.5 -135t130 -206t46 -260t-46 -260t-130 -205t-200.5 -135t-257.5 -49t-258 49t-200 135t-129 204.5t-46 260.5zM275 1509q0 78 53 132.5t131 54.5t132.5 -54.5t54.5 -132.5t-54.5 -131t-132.5 -53
t-131 53t-53 131zM428 629q0 -72 16.5 -127.5t47 -95t73.5 -60t97 -20.5q51 0 95 20.5t74.5 60t48 95t17.5 127.5q0 70 -17.5 126t-48 96t-74.5 60.5t-95 20.5q-53 0 -96.5 -20.5t-74 -60.5t-47 -96.5t-16.5 -125.5zM678 1509q0 78 53.5 132.5t131.5 54.5t132 -54.5
t54 -132.5t-54 -131t-132 -53t-131.5 53t-53.5 131z" />
    <glyph glyph-name="multiply" unicode="&#xd7;" horiz-adv-x="1009" 
d="M61 367l246 245l-246 244l199 199l246 -244l244 244l198 -199l-243 -244l243 -245l-198 -197l-244 244l-246 -244z" />
    <glyph glyph-name="Oslash" unicode="&#xd8;" horiz-adv-x="1341" 
d="M37 84l129 133q-51 68 -84 152q-45 119 -45 260t46 260t129 206t199.5 135t258.5 48q141 0 258 -49q78 -31 139 -82l127 131l111 -104l-129 -134q49 -68 81 -151q47 -119 47.5 -260.5t-46 -260t-130.5 -204.5t-200.5 -135t-257.5 -49t-258 49q-78 33 -140 80l-125 -129z
M436 629q0 -68 13 -119l360 373q-20 16 -45 28q-43 20 -94 21q-53 0 -96.5 -20.5t-74 -60.5t-47 -96.5t-16.5 -125.5zM528 373q20 -16 45 -27q43 -20 97 -20q51 0 95 20.5t74.5 60t48 95t17.5 127.5q0 63 -14 116z" />
    <glyph glyph-name="Ugrave" unicode="&#xd9;" horiz-adv-x="1261" 
d="M57 520v737h396v-702q0 -53 13 -94t35.5 -70t55.5 -43t74 -14q39 0 72.5 14t56 43t36 70t13.5 94v702h395v-737q0 -129 -40 -230.5t-114.5 -170t-181 -104t-237.5 -35.5t-237.5 35.5t-181.5 104t-115 170t-40 230.5zM280 1638h381l174 -280h-380z" />
    <glyph glyph-name="Uacute" unicode="&#xda;" horiz-adv-x="1261" 
d="M57 520v737h396v-702q0 -53 13 -94t35.5 -70t55.5 -43t74 -14q39 0 72.5 14t56 43t36 70t13.5 94v702h395v-737q0 -129 -40 -230.5t-114.5 -170t-181 -104t-237.5 -35.5t-237.5 35.5t-181.5 104t-115 170t-40 230.5zM436 1358l175 280h380l-174 -280h-381z" />
    <glyph glyph-name="Ucircumflex" unicode="&#xdb;" horiz-adv-x="1261" 
d="M57 520v737h396v-702q0 -53 13 -94t35.5 -70t55.5 -43t74 -14q39 0 72.5 14t56 43t36 70t13.5 94v702h395v-737q0 -129 -40 -230.5t-114.5 -170t-181 -104t-237.5 -35.5t-237.5 35.5t-181.5 104t-115 170t-40 230.5zM252 1358l240 280h278l240 -280h-305l-74 76l-74 -76
h-305z" />
    <glyph glyph-name="Udieresis" unicode="&#xdc;" horiz-adv-x="1261" 
d="M57 520v737h396v-702q0 -53 13 -94t35.5 -70t55.5 -43t74 -14q39 0 72.5 14t56 43t36 70t13.5 94v702h395v-737q0 -129 -40 -230.5t-114.5 -170t-181 -104t-237.5 -35.5t-237.5 35.5t-181.5 104t-115 170t-40 230.5zM244 1509q0 78 53 132.5t131 54.5t132.5 -54.5
t54.5 -132.5t-54.5 -131t-132.5 -53t-131 53t-53 131zM647 1509q0 78 53.5 132.5t131.5 54.5t132 -54.5t54 -132.5t-54 -131t-132 -53t-131.5 53t-53.5 131z" />
    <glyph glyph-name="Yacute" unicode="&#xdd;" horiz-adv-x="1294" 
d="M0 1257h430l225 -448l226 448h413l-450 -843v-414h-400v414zM452 1358l175 280h380l-174 -280h-381z" />
    <glyph glyph-name="Thorn" unicode="&#xde;" horiz-adv-x="1169" 
d="M68 0v1257h391v-161h198q104 0 191.5 -30t150 -88t97 -143t34.5 -196t-34.5 -196t-97 -143t-149.5 -88t-192 -30h-198v-182h-391zM459 512h145q78 0 111 34t33 93t-33 93t-111 34h-145v-254z" />
    <glyph glyph-name="germandbls" unicode="&#xdf;" horiz-adv-x="1140" 
d="M63 0v852q0 117 34 208t98.5 155.5t156.5 98.5t207 34t202 -28t146.5 -77t89 -116.5t29.5 -147.5q0 -49 -11 -90t-28.5 -75t-40 -59.5t-47.5 -39.5q45 -16 85 -46t69.5 -72t47 -95t17.5 -117q0 -94 -30.5 -168t-84 -124t-128 -76.5t-162.5 -26.5q-47 0 -84 4t-78 18v297
q14 -4 33.5 -7t42.5 -3q55 0 88 28.5t33 88.5q0 31 -10.5 52t-30 34.5t-46 20.5t-59.5 7h-45v293h8q20 0 39 6.5t31 19.5t19.5 31.5t7.5 43.5q0 43 -26 69.5t-77 26.5q-53 0 -80.5 -38t-27.5 -97v-885h-388z" />
    <glyph glyph-name="agrave" unicode="&#xe0;" horiz-adv-x="1001" 
d="M25 281q0 68 27.5 122t74.5 91.5t112.5 58t139.5 20.5q55 0 112.5 -14t86.5 -35v51q0 29 -17.5 54.5t-60.5 25.5q-35 0 -53.5 -14t-26.5 -35h-365q8 72 44 134.5t94.5 109.5t139.5 74.5t181 27.5q211 0 325.5 -105.5t114.5 -297.5v-549h-376v45q-23 -23 -85.5 -42
t-134.5 -19q-68 0 -128 18t-106 55t-72.5 92.5t-26.5 131.5zM178 1331h360l174 -321h-360zM381 289q0 -16 8 -28.5t20.5 -21t29 -12.5t32.5 -4q18 0 34.5 3t30 9.5t24.5 14.5t18 18v41q-6 10 -17.5 18.5t-25 14.5t-30 9t-34.5 3q-16 0 -32.5 -4t-29 -12t-20.5 -20.5
t-8 -28.5z" />
    <glyph glyph-name="aacute" unicode="&#xe1;" horiz-adv-x="1001" 
d="M25 281q0 68 27.5 122t74.5 91.5t112.5 58t139.5 20.5q55 0 112.5 -14t86.5 -35v51q0 29 -17.5 54.5t-60.5 25.5q-35 0 -53.5 -14t-26.5 -35h-365q8 72 44 134.5t94.5 109.5t139.5 74.5t181 27.5q211 0 325.5 -105.5t114.5 -297.5v-549h-376v45q-23 -23 -85.5 -42
t-134.5 -19q-68 0 -128 18t-106 55t-72.5 92.5t-26.5 131.5zM338 1010l174 321h360l-174 -321h-360zM381 289q0 -16 8 -28.5t20.5 -21t29 -12.5t32.5 -4q18 0 34.5 3t30 9.5t24.5 14.5t18 18v41q-6 10 -17.5 18.5t-25 14.5t-30 9t-34.5 3q-16 0 -32.5 -4t-29 -12
t-20.5 -20.5t-8 -28.5z" />
    <glyph glyph-name="acircumflex" unicode="&#xe2;" horiz-adv-x="1001" 
d="M25 281q0 68 27.5 122t74.5 91.5t112.5 58t139.5 20.5q55 0 112.5 -14t86.5 -35v51q0 29 -17.5 54.5t-60.5 25.5q-35 0 -53.5 -14t-26.5 -35h-365q8 72 44 134.5t94.5 109.5t139.5 74.5t181 27.5q211 0 325.5 -105.5t114.5 -297.5v-549h-376v45q-23 -23 -85.5 -42
t-134.5 -19q-68 0 -128 18t-106 55t-72.5 92.5t-26.5 131.5zM182 1010l199 321h278l199 -321h-277l-61 84l-61 -84h-277zM381 289q0 -16 8 -28.5t20.5 -21t29 -12.5t32.5 -4q18 0 34.5 3t30 9.5t24.5 14.5t18 18v41q-6 10 -17.5 18.5t-25 14.5t-30 9t-34.5 3q-16 0 -32.5 -4
t-29 -12t-20.5 -20.5t-8 -28.5z" />
    <glyph glyph-name="atilde" unicode="&#xe3;" horiz-adv-x="1001" 
d="M25 281q0 68 27.5 122t74.5 91.5t112.5 58t139.5 20.5q55 0 112.5 -14t86.5 -35v51q0 29 -17.5 54.5t-60.5 25.5q-35 0 -53.5 -14t-26.5 -35h-365q8 72 44 134.5t94.5 109.5t139.5 74.5t181 27.5q211 0 325.5 -105.5t114.5 -297.5v-549h-376v45q-23 -23 -85.5 -42
t-134.5 -19q-68 0 -128 18t-106 55t-72.5 92.5t-26.5 131.5zM215 1010q0 63 8 122.5t28.5 105.5t57.5 73.5t92 27.5q37 0 62.5 -8t47 -19.5t43 -19.5t46.5 -8q20 0 32.5 13.5t12.5 33.5h204q0 -63 -8 -122.5t-28.5 -105.5t-57.5 -74t-92 -28q-37 0 -62.5 8.5t-47 19.5
t-43 19.5t-46.5 8.5q-20 0 -32.5 -13.5t-12.5 -33.5h-204zM381 289q0 -16 8 -28.5t20.5 -21t29 -12.5t32.5 -4q18 0 34.5 3t30 9.5t24.5 14.5t18 18v41q-6 10 -17.5 18.5t-25 14.5t-30 9t-34.5 3q-16 0 -32.5 -4t-29 -12t-20.5 -20.5t-8 -28.5z" />
    <glyph glyph-name="adieresis" unicode="&#xe4;" horiz-adv-x="1001" 
d="M25 281q0 68 27.5 122t74.5 91.5t112.5 58t139.5 20.5q55 0 112.5 -14t86.5 -35v51q0 29 -17.5 54.5t-60.5 25.5q-35 0 -53.5 -14t-26.5 -35h-365q8 72 44 134.5t94.5 109.5t139.5 74.5t181 27.5q211 0 325.5 -105.5t114.5 -297.5v-549h-376v45q-23 -23 -85.5 -42
t-134.5 -19q-68 0 -128 18t-106 55t-72.5 92.5t-26.5 131.5zM153 1155q0 74 52.5 127t125.5 53q37 0 70 -14t57.5 -39t39 -57.5t14.5 -69.5q0 -74 -53.5 -126t-127.5 -52t-126 52t-52 126zM381 289q0 -16 8 -28.5t20.5 -21t29 -12.5t32.5 -4q18 0 34.5 3t30 9.5t24.5 14.5
t18 18v41q-6 10 -17.5 18.5t-25 14.5t-30 9t-34.5 3q-16 0 -32.5 -4t-29 -12t-20.5 -20.5t-8 -28.5zM542 1155q0 74 52.5 127t126.5 53q37 0 69.5 -14t57 -39t39 -57.5t14.5 -69.5q0 -74 -53.5 -126t-126.5 -52q-74 0 -126.5 52t-52.5 126z" />
    <glyph glyph-name="aring" unicode="&#xe5;" horiz-adv-x="1001" 
d="M25 281q0 68 27.5 122t74.5 91.5t112.5 58t139.5 20.5q55 0 112.5 -14t86.5 -35v51q0 29 -17.5 54.5t-60.5 25.5q-35 0 -53.5 -14t-26.5 -35h-365q8 72 44 134.5t94.5 109.5t139.5 74.5t181 27.5q211 0 325.5 -105.5t114.5 -297.5v-549h-376v45q-23 -23 -85.5 -42
t-134.5 -19q-68 0 -128 18t-106 55t-72.5 92.5t-26.5 131.5zM286 1219q0 49 18.5 91t50.5 73.5t76 50t95 18.5t94 -18.5t76 -50t51.5 -73.5t18.5 -91t-18.5 -91.5t-51.5 -73t-76 -49t-94 -18.5t-95 18.5t-76 49t-50.5 72.5t-18.5 92zM381 289q0 -16 8 -28.5t20.5 -21
t29 -12.5t32.5 -4q18 0 34.5 3t30 9.5t24.5 14.5t18 18v41q-6 10 -17.5 18.5t-25 14.5t-30 9t-34.5 3q-16 0 -32.5 -4t-29 -12t-20.5 -20.5t-8 -28.5zM460 1219q0 -27 18.5 -46.5t47.5 -19.5q31 0 49.5 19.5t18.5 46.5q0 29 -18.5 48t-49.5 19q-29 0 -47.5 -19.5
t-18.5 -47.5z" />
    <glyph glyph-name="ae" unicode="&#xe6;" horiz-adv-x="1499" 
d="M23 266q0 74 31.5 129.5t87 91t129 54t157.5 18.5h137v23q0 33 -20.5 57.5t-67.5 24.5q-35 0 -57.5 -16.5t-28.5 -41.5h-338q8 72 42 135.5t88.5 109.5t130 72.5t171.5 26.5q82 0 146.5 -23.5t118.5 -58.5q53 35 115.5 58.5t148.5 23.5q106 0 192 -34.5t145.5 -96
t92.5 -148.5t33 -192v-100h-582q6 -31 15.5 -50.5t23.5 -31.5t34.5 -17.5t45.5 -5.5q33 0 57.5 13.5t36.5 42.5h367q-31 -166 -157 -258t-312 -92q-98 0 -174 30.5t-134 71.5q-27 -18 -60.5 -36.5t-74.5 -33t-91 -23.5t-110 -9q-66 0 -127 18t-108 55t-75.5 90.5
t-28.5 122.5zM377 305q0 -35 27.5 -50t62.5 -15q16 0 31.5 3t28 9t22.5 14t16 19v94h-98q-18 0 -34.5 -5t-29 -14.5t-19.5 -23.5t-7 -31zM903 559h201q-4 20 -11.5 37.5t-19.5 31t-28.5 20.5t-36.5 7q-41 0 -67 -25.5t-38 -70.5z" />
    <glyph glyph-name="ccedilla" unicode="&#xe7;" horiz-adv-x="987" 
d="M23 465q0 106 34.5 196.5t98 154t153.5 99t201 35.5q100 0 180 -29.5t138.5 -82t92 -125t44.5 -160.5h-373q-4 31 -23.5 54.5t-60.5 23.5q-23 0 -42.5 -11.5t-32.5 -32t-20 -52t-7 -70.5q0 -41 7 -72t20 -51t32.5 -31.5t42.5 -11.5q41 0 60.5 23.5t23.5 54.5h373
q-10 -88 -44 -161t-92.5 -125t-138.5 -81.5t-180 -29.5q-111 0 -201 35.5t-153.5 99t-98 152.5t-34.5 198zM205 -358l137 292h320l-137 -292h-320z" />
    <glyph glyph-name="egrave" unicode="&#xe8;" horiz-adv-x="997" 
d="M23 465q0 111 35.5 200t100 152.5t153.5 98t194 34.5q113 0 200 -34.5t146 -96t91 -148.5t32 -192v-86h-582q6 -31 15.5 -52.5t23.5 -36.5t34.5 -22.5t45.5 -7.5q35 0 62.5 16.5t37.5 53.5h363q-27 -174 -148.5 -269t-314.5 -95q-113 0 -203 34.5t-153.5 99t-98 153.5
t-34.5 198zM168 1331h360l174 -321h-360zM401 559h201q-4 20 -11 37.5t-19.5 31t-29 20.5t-36.5 7t-36.5 -7t-30 -19.5t-22.5 -29.5t-16 -40z" />
    <glyph glyph-name="eacute" unicode="&#xe9;" horiz-adv-x="997" 
d="M23 465q0 111 35.5 200t100 152.5t153.5 98t194 34.5q113 0 200 -34.5t146 -96t91 -148.5t32 -192v-86h-582q6 -31 15.5 -52.5t23.5 -36.5t34.5 -22.5t45.5 -7.5q35 0 62.5 16.5t37.5 53.5h363q-27 -174 -148.5 -269t-314.5 -95q-113 0 -203 34.5t-153.5 99t-98 153.5
t-34.5 198zM328 1010l174 321h360l-174 -321h-360zM401 559h201q-4 20 -11 37.5t-19.5 31t-29 20.5t-36.5 7t-36.5 -7t-30 -19.5t-22.5 -29.5t-16 -40z" />
    <glyph glyph-name="ecircumflex" unicode="&#xea;" horiz-adv-x="997" 
d="M23 465q0 111 35.5 200t100 152.5t153.5 98t194 34.5q113 0 200 -34.5t146 -96t91 -148.5t32 -192v-86h-582q6 -31 15.5 -52.5t23.5 -36.5t34.5 -22.5t45.5 -7.5q35 0 62.5 16.5t37.5 53.5h363q-27 -174 -148.5 -269t-314.5 -95q-113 0 -203 34.5t-153.5 99t-98 153.5
t-34.5 198zM178 1010l199 321h278l199 -321h-277l-61 84l-61 -84h-277zM401 559h201q-4 20 -11 37.5t-19.5 31t-29 20.5t-36.5 7t-36.5 -7t-30 -19.5t-22.5 -29.5t-16 -40z" />
    <glyph glyph-name="edieresis" unicode="&#xeb;" horiz-adv-x="997" 
d="M23 465q0 111 35.5 200t100 152.5t153.5 98t194 34.5q113 0 200 -34.5t146 -96t91 -148.5t32 -192v-86h-582q6 -31 15.5 -52.5t23.5 -36.5t34.5 -22.5t45.5 -7.5q35 0 62.5 16.5t37.5 53.5h363q-27 -174 -148.5 -269t-314.5 -95q-113 0 -203 34.5t-153.5 99t-98 153.5
t-34.5 198zM143 1155q0 74 52.5 127t125.5 53q37 0 70 -14t57.5 -39t39 -57.5t14.5 -69.5q0 -74 -53.5 -126t-127.5 -52t-126 52t-52 126zM401 559h201q-4 20 -11 37.5t-19.5 31t-29 20.5t-36.5 7t-36.5 -7t-30 -19.5t-22.5 -29.5t-16 -40zM532 1155q0 74 52.5 127t126.5 53
q37 0 69.5 -14t57 -39t39 -57.5t14.5 -69.5q0 -74 -53.5 -126t-126.5 -52q-74 0 -126.5 52t-52.5 126z" />
    <glyph glyph-name="igrave" unicode="&#xec;" horiz-adv-x="516" 
d="M-90 1331h360l174 -321h-360zM63 0v930h390v-930h-390z" />
    <glyph glyph-name="iacute" unicode="&#xed;" horiz-adv-x="516" 
d="M63 0v930h390v-930h-390zM70 1010l174 321h360l-174 -321h-360z" />
    <glyph glyph-name="icircumflex" unicode="&#xee;" horiz-adv-x="516" 
d="M-47 1010l166 321h278l166 -321h-264l-41 104l-41 -104h-264zM63 0v930h390v-930h-390z" />
    <glyph glyph-name="idieresis" unicode="&#xef;" horiz-adv-x="516" 
d="M-115 1155q0 74 52.5 127t125.5 53q37 0 70 -14t57.5 -39t39 -57.5t14.5 -69.5q0 -74 -53.5 -126t-127.5 -52t-126 52t-52 126zM63 0v930h390v-930h-390zM274 1155q0 74 52.5 127t126.5 53q37 0 69.5 -14t57 -39t39 -57.5t14.5 -69.5q0 -74 -53.5 -126t-126.5 -52
q-74 0 -126.5 52t-52.5 126z" />
    <glyph glyph-name="eth" unicode="&#xf0;" horiz-adv-x="1032" 
d="M23 465q0 109 35.5 196t99 148t151.5 94t191 33q10 0 22.5 -1t22.5 -5h4q-27 35 -72 80l-12 12l-201 -61l-55 143l123 37q-43 35 -90 71q-70 55 -146 111v8h469q53 -45 101 -90l151 47l53 -143l-86 -27q74 -86 121 -176q53 -100 79 -206.5t26 -223.5q0 -127 -36 -225.5
t-100.5 -167t-155.5 -104t-202 -35.5t-201 34.5t-155.5 99t-101 153.5t-35.5 198zM406 463q0 -37 7 -67.5t21.5 -52t34.5 -34t47 -12.5t48.5 12.5t35.5 34t21.5 52t7.5 67.5t-7.5 67.5t-21.5 52t-35.5 33t-48.5 11.5t-47 -11.5t-34.5 -33t-21.5 -52t-7 -67.5z" />
    <glyph glyph-name="ntilde" unicode="&#xf1;" horiz-adv-x="1091" 
d="M63 0v930h390v-76q39 43 104.5 69.5t142.5 26.5q154 0 242 -91t88 -247v-612h-389v508q0 41 -22.5 70.5t-67.5 29.5q-18 0 -33.5 -5t-29 -15t-22.5 -23.5t-13 -32.5v-532h-390zM246 1010q0 63 8 122.5t28.5 105.5t57.5 73.5t92 27.5q37 0 62.5 -8t47 -19.5t43 -19.5
t46.5 -8q20 0 32.5 13.5t12.5 33.5h204q0 -63 -8 -122.5t-28.5 -105.5t-57.5 -74t-92 -28q-37 0 -62.5 8.5t-47 19.5t-43 19.5t-46.5 8.5q-20 0 -32.5 -13.5t-12.5 -33.5h-204z" />
    <glyph glyph-name="ograve" unicode="&#xf2;" horiz-adv-x="1032" 
d="M23 465q0 109 35.5 198t101 153.5t156 99t200.5 34.5q111 0 202 -34.5t155.5 -99t100.5 -153.5t36 -198t-36 -198t-100.5 -153.5t-155.5 -99t-202 -34.5t-201 34.5t-155.5 99t-101 153.5t-35.5 198zM168 1331h360l174 -321h-360zM406 465q0 -37 7 -68.5t21.5 -53
t34.5 -34t47 -12.5t48.5 12.5t35.5 34t21.5 53t7.5 68.5t-7.5 68.5t-21.5 53t-35.5 34t-48.5 12.5t-47 -12.5t-34.5 -34t-21.5 -53t-7 -68.5z" />
    <glyph glyph-name="oacute" unicode="&#xf3;" horiz-adv-x="1032" 
d="M23 465q0 109 35.5 198t101 153.5t156 99t200.5 34.5q111 0 202 -34.5t155.5 -99t100.5 -153.5t36 -198t-36 -198t-100.5 -153.5t-155.5 -99t-202 -34.5t-201 34.5t-155.5 99t-101 153.5t-35.5 198zM328 1010l174 321h360l-174 -321h-360zM406 465q0 -37 7 -68.5
t21.5 -53t34.5 -34t47 -12.5t48.5 12.5t35.5 34t21.5 53t7.5 68.5t-7.5 68.5t-21.5 53t-35.5 34t-48.5 12.5t-47 -12.5t-34.5 -34t-21.5 -53t-7 -68.5z" />
    <glyph glyph-name="ocircumflex" unicode="&#xf4;" horiz-adv-x="1032" 
d="M23 465q0 109 35.5 198t101 153.5t156 99t200.5 34.5q111 0 202 -34.5t155.5 -99t100.5 -153.5t36 -198t-36 -198t-100.5 -153.5t-155.5 -99t-202 -34.5t-201 34.5t-155.5 99t-101 153.5t-35.5 198zM178 1010l199 321h278l199 -321h-277l-61 84l-61 -84h-277zM406 465
q0 -37 7 -68.5t21.5 -53t34.5 -34t47 -12.5t48.5 12.5t35.5 34t21.5 53t7.5 68.5t-7.5 68.5t-21.5 53t-35.5 34t-48.5 12.5t-47 -12.5t-34.5 -34t-21.5 -53t-7 -68.5z" />
    <glyph glyph-name="otilde" unicode="&#xf5;" horiz-adv-x="1032" 
d="M23 465q0 109 35.5 198t101 153.5t156 99t200.5 34.5q111 0 202 -34.5t155.5 -99t100.5 -153.5t36 -198t-36 -198t-100.5 -153.5t-155.5 -99t-202 -34.5t-201 34.5t-155.5 99t-101 153.5t-35.5 198zM199 1010q0 63 8 122.5t28.5 105.5t57.5 73.5t92 27.5q37 0 62.5 -8
t47 -19.5t43 -19.5t46.5 -8q20 0 32.5 13.5t12.5 33.5h204q0 -63 -8 -122.5t-28.5 -105.5t-57.5 -74t-92 -28q-37 0 -62.5 8.5t-47 19.5t-43 19.5t-46.5 8.5q-20 0 -32.5 -13.5t-12.5 -33.5h-204zM406 465q0 -37 7 -68.5t21.5 -53t34.5 -34t47 -12.5t48.5 12.5t35.5 34
t21.5 53t7.5 68.5t-7.5 68.5t-21.5 53t-35.5 34t-48.5 12.5t-47 -12.5t-34.5 -34t-21.5 -53t-7 -68.5z" />
    <glyph glyph-name="odieresis" unicode="&#xf6;" horiz-adv-x="1032" 
d="M23 465q0 109 35.5 198t101 153.5t156 99t200.5 34.5q111 0 202 -34.5t155.5 -99t100.5 -153.5t36 -198t-36 -198t-100.5 -153.5t-155.5 -99t-202 -34.5t-201 34.5t-155.5 99t-101 153.5t-35.5 198zM143 1155q0 74 52.5 127t125.5 53q37 0 70 -14t57.5 -39t39 -57.5
t14.5 -69.5q0 -74 -53.5 -126t-127.5 -52t-126 52t-52 126zM406 465q0 -37 7 -68.5t21.5 -53t34.5 -34t47 -12.5t48.5 12.5t35.5 34t21.5 53t7.5 68.5t-7.5 68.5t-21.5 53t-35.5 34t-48.5 12.5t-47 -12.5t-34.5 -34t-21.5 -53t-7 -68.5zM532 1155q0 74 52.5 127t126.5 53
q37 0 69.5 -14t57 -39t39 -57.5t14.5 -69.5q0 -74 -53.5 -126t-126.5 -52q-74 0 -126.5 52t-52.5 126z" />
    <glyph glyph-name="divide" unicode="&#xf7;" horiz-adv-x="1128" 
d="M78 473v281h973v-281h-973zM379 229q0 76 54 128.5t132 52.5t132.5 -52.5t54.5 -128.5t-54.5 -128t-132.5 -52t-132 52t-54 128zM379 995q0 76 54 128.5t132 52.5t132.5 -52.5t54.5 -128.5t-54.5 -128t-132.5 -52t-132 52t-54 128z" />
    <glyph glyph-name="oslash" unicode="&#xf8;" horiz-adv-x="1052" 
d="M33 465q0 109 35.5 198t101.5 153.5t156 99t200 34.5q111 0 201 -35q55 -23 100 -53l86 88l86 -76l-88 -90q45 -53 72 -122q37 -88 37 -197t-36 -198t-100.5 -153.5t-155.5 -99t-202 -34.5t-200 34q-55 20 -103 54l-84 -88l-86 75l86 90q-43 53 -71 121q-35 90 -35 199z
M408 465q0 -20 2 -39l182 190q-9 9 -17 13q-23 14 -49 14q-27 0 -48 -13.5t-36.5 -38t-24.5 -57t-9 -69.5zM461 313q8 -8 16 -14q23 -12 49 -12q27 0 49.5 13t38 37.5t24.5 57.5t9 70q0 20 -4 39z" />
    <glyph glyph-name="ugrave" unicode="&#xf9;" horiz-adv-x="1087" 
d="M61 317v613h390v-514q0 -41 20.5 -71t67.5 -30q33 0 59.5 20.5t36.5 55.5v539h389v-930h-387v76q-39 -43 -104.5 -69.5t-143.5 -26.5q-152 0 -240 91t-88 246zM195 1331h360l174 -321h-360z" />
    <glyph glyph-name="uacute" unicode="&#xfa;" horiz-adv-x="1087" 
d="M61 317v613h390v-514q0 -41 20.5 -71t67.5 -30q33 0 59.5 20.5t36.5 55.5v539h389v-930h-387v76q-39 -43 -104.5 -69.5t-143.5 -26.5q-152 0 -240 91t-88 246zM355 1010l174 321h360l-174 -321h-360z" />
    <glyph glyph-name="ucircumflex" unicode="&#xfb;" horiz-adv-x="1087" 
d="M61 317v613h390v-514q0 -41 20.5 -71t67.5 -30q33 0 59.5 20.5t36.5 55.5v539h389v-930h-387v76q-39 -43 -104.5 -69.5t-143.5 -26.5q-152 0 -240 91t-88 246zM205 1010l199 321h278l199 -321h-277l-61 84l-61 -84h-277z" />
    <glyph glyph-name="udieresis" unicode="&#xfc;" horiz-adv-x="1087" 
d="M61 317v613h390v-514q0 -41 20.5 -71t67.5 -30q33 0 59.5 20.5t36.5 55.5v539h389v-930h-387v76q-39 -43 -104.5 -69.5t-143.5 -26.5q-152 0 -240 91t-88 246zM170 1155q0 74 52.5 127t125.5 53q37 0 70 -14t57.5 -39t39 -57.5t14.5 -69.5q0 -74 -53.5 -126t-127.5 -52
t-126 52t-52 126zM559 1155q0 74 52.5 127t126.5 53q37 0 69.5 -14t57 -39t39 -57.5t14.5 -69.5q0 -74 -53.5 -126t-126.5 -52q-74 0 -126.5 52t-52.5 126z" />
    <glyph glyph-name="yacute" unicode="&#xfd;" horiz-adv-x="1060" 
d="M0 930h401l142 -441l135 441h383l-473 -1243h-385l139 362zM359 1010l174 321h360l-174 -321h-360z" />
    <glyph glyph-name="thorn" unicode="&#xfe;" horiz-adv-x="1103" 
d="M63 -313v1644h390v-473q16 18 40.5 34.5t53 29t62.5 20.5t69 8q98 0 174 -38t127 -104.5t76.5 -154.5t25.5 -188t-25.5 -188.5t-76.5 -155t-127 -104t-174 -37.5q-35 0 -69 8t-62.5 20t-53 28.5t-40.5 35.5v-385h-390zM453 373q12 -29 41.5 -47.5t66.5 -18.5
q31 0 55.5 12.5t41 33t25.5 49t9 63.5q0 33 -9 62.5t-25.5 50t-41 33t-55.5 12.5q-41 0 -68.5 -18.5t-39.5 -47.5v-184z" />
    <glyph glyph-name="ydieresis" unicode="&#xff;" horiz-adv-x="1060" 
d="M0 930h401l142 -441l135 441h383l-473 -1243h-385l139 362zM174 1155q0 74 52.5 127t125.5 53q37 0 70 -14t57.5 -39t39 -57.5t14.5 -69.5q0 -74 -53.5 -126t-127.5 -52t-126 52t-52 126zM563 1155q0 74 52.5 127t126.5 53q37 0 69.5 -14t57 -39t39 -57.5t14.5 -69.5
q0 -74 -53.5 -126t-126.5 -52q-74 0 -126.5 52t-52.5 126z" />
    <glyph glyph-name="OE" unicode="&#x152;" horiz-adv-x="1763" 
d="M29 629q0 143 44 260t127 198.5t202.5 125.5t273.5 44h1032v-337h-514v-119h467v-328h-467v-133h514v-340h-1032q-154 0 -273.5 44t-202.5 126t-127 198.5t-44 260.5zM420 629q0 -66 18.5 -119t53 -91t87 -58.5t117.5 -20.5h107v580h-107q-66 0 -118 -20.5t-86.5 -58.5
t-53 -91.5t-18.5 -120.5z" />
    <glyph glyph-name="oe" unicode="&#x153;" horiz-adv-x="1574" 
d="M23 465q0 109 35.5 198t101 153.5t156 99t200.5 34.5q86 0 159 -24.5t132 -67.5q55 43 122.5 67.5t153.5 24.5q113 0 200 -34.5t146.5 -96t91 -148.5t31.5 -192v-86h-581q6 -31 15 -52.5t23.5 -36.5t35 -22.5t45.5 -7.5q35 0 62.5 16.5t37.5 53.5h362q-27 -174 -148 -269
t-314 -95q-86 0 -158 25.5t-129 68.5q-59 -43 -130 -68.5t-157 -25.5q-111 0 -201 34.5t-155.5 99t-101 153.5t-35.5 198zM406 465q0 -37 7 -68.5t21.5 -53t34.5 -34t47 -12.5t48.5 12.5t35.5 34t21.5 53t7.5 68.5t-7.5 68.5t-21.5 53t-35.5 34t-48.5 12.5t-47 -12.5
t-34.5 -34t-21.5 -53t-7 -68.5zM979 559h201q-4 20 -11.5 37.5t-19.5 31t-29 20.5t-37 7q-41 0 -66.5 -25.5t-37.5 -70.5z" />
    <glyph glyph-name="Ydieresis" unicode="&#x178;" horiz-adv-x="1294" 
d="M0 1257h430l225 -448l226 448h413l-450 -843v-414h-400v414zM260 1509q0 78 53 132.5t131 54.5t132.5 -54.5t54.5 -132.5t-54.5 -131t-132.5 -53t-131 53t-53 131zM663 1509q0 78 53.5 132.5t131.5 54.5t132 -54.5t54 -132.5t-54 -131t-132 -53t-131.5 53t-53.5 131z" />
    <glyph glyph-name="circumflex" unicode="&#x2c6;" 
d="M174 1010l199 321h278l199 -321h-277l-61 84l-61 -84h-277z" />
    <glyph glyph-name="tilde" unicode="&#x2dc;" 
d="M195 1010q0 63 8 122.5t28.5 105.5t57.5 73.5t92 27.5q37 0 62.5 -8t47 -19.5t43 -19.5t46.5 -8q20 0 32.5 13.5t12.5 33.5h204q0 -63 -8 -122.5t-28.5 -105.5t-57.5 -74t-92 -28q-37 0 -62.5 8.5t-47 19.5t-43 19.5t-46.5 8.5q-20 0 -32.5 -13.5t-12.5 -33.5h-204z" />
    <glyph glyph-name="uni2000" unicode="&#x2000;" horiz-adv-x="886" 
 />
    <glyph glyph-name="uni2001" unicode="&#x2001;" horiz-adv-x="1772" 
 />
    <glyph glyph-name="uni2002" unicode="&#x2002;" horiz-adv-x="886" 
 />
    <glyph glyph-name="uni2003" unicode="&#x2003;" horiz-adv-x="1772" 
 />
    <glyph glyph-name="uni2004" unicode="&#x2004;" horiz-adv-x="590" 
 />
    <glyph glyph-name="uni2005" unicode="&#x2005;" horiz-adv-x="443" 
 />
    <glyph glyph-name="uni2006" unicode="&#x2006;" horiz-adv-x="295" 
 />
    <glyph glyph-name="uni2007" unicode="&#x2007;" horiz-adv-x="295" 
 />
    <glyph glyph-name="uni2008" unicode="&#x2008;" horiz-adv-x="221" 
 />
    <glyph glyph-name="uni2009" unicode="&#x2009;" horiz-adv-x="354" 
 />
    <glyph glyph-name="uni200A" unicode="&#x200a;" horiz-adv-x="98" 
 />
    <glyph glyph-name="uni2010" unicode="&#x2010;" horiz-adv-x="628" 
d="M68 377v317h493v-317h-493z" />
    <glyph glyph-name="uni2011" unicode="&#x2011;" horiz-adv-x="628" 
d="M68 377v317h493v-317h-493z" />
    <glyph glyph-name="figuredash" unicode="&#x2012;" horiz-adv-x="628" 
d="M68 377v317h493v-317h-493z" />
    <glyph glyph-name="endash" unicode="&#x2013;" horiz-adv-x="944" 
d="M68 410v249h809v-249h-809z" />
    <glyph glyph-name="emdash" unicode="&#x2014;" horiz-adv-x="1703" 
d="M68 410v249h1568v-249h-1568z" />
    <glyph glyph-name="quoteleft" unicode="&#x2018;" horiz-adv-x="489" 
d="M25 852q0 66 25.5 125t62.5 115l108 165h244l-156 -239q59 -12 105.5 -60.5t46.5 -128.5q0 -90 -62.5 -147t-156.5 -57q-86 0 -151.5 58t-65.5 169z" />
    <glyph glyph-name="quoteright" unicode="&#x2019;" horiz-adv-x="489" 
d="M25 645l155 240q-59 12 -105 60t-46 128q0 90 62.5 147.5t156.5 57.5q86 0 151.5 -58.5t65.5 -168.5q0 -66 -25.5 -125.5t-62.5 -114.5l-109 -166h-243z" />
    <glyph glyph-name="quotesinglbase" unicode="&#x201a;" horiz-adv-x="489" 
d="M25 -238l155 240q-59 12 -105 60.5t-46 127.5q0 90 62.5 147.5t156.5 57.5q86 0 151.5 -58t65.5 -169q0 -66 -25.5 -125t-62.5 -115l-109 -166h-243z" />
    <glyph glyph-name="quotedblleft" unicode="&#x201c;" horiz-adv-x="962" 
d="M25 852q0 66 25.5 125t62.5 115l108 165h244l-156 -239q59 -12 105.5 -60.5t46.5 -128.5q0 -90 -62.5 -147t-156.5 -57q-86 0 -151.5 58t-65.5 169zM498 852q0 66 25.5 125t62.5 115l108 165h244l-156 -239q59 -12 105.5 -60.5t46.5 -128.5q0 -90 -62.5 -147t-156.5 -57
q-86 0 -151.5 58t-65.5 169z" />
    <glyph glyph-name="quotedblright" unicode="&#x201d;" horiz-adv-x="962" 
d="M25 645l155 240q-59 12 -105 60t-46 128q0 90 62.5 147.5t156.5 57.5q86 0 151.5 -58.5t65.5 -168.5q0 -66 -25.5 -125.5t-62.5 -114.5l-109 -166h-243zM498 645l155 240q-59 12 -105 60t-46 128q0 90 62.5 147.5t156.5 57.5q86 0 151.5 -58.5t65.5 -168.5
q0 -66 -25.5 -125.5t-62.5 -114.5l-109 -166h-243z" />
    <glyph glyph-name="quotedblbase" unicode="&#x201e;" horiz-adv-x="962" 
d="M25 -238l155 240q-59 12 -105 60.5t-46 127.5q0 90 62.5 147.5t156.5 57.5q86 0 151.5 -58t65.5 -169q0 -66 -25.5 -125t-62.5 -115l-109 -166h-243zM498 -238l155 240q-59 12 -105 60.5t-46 127.5q0 90 62.5 147.5t156.5 57.5q86 0 151.5 -58t65.5 -169
q0 -66 -25.5 -125t-62.5 -115l-109 -166h-243z" />
    <glyph glyph-name="bullet" unicode="&#x2022;" horiz-adv-x="815" 
d="M41 535q0 82 28.5 149.5t79 116.5t117 75.5t144.5 26.5q76 0 142 -26.5t115.5 -75.5t78 -116.5t28.5 -149.5q0 -80 -28.5 -146.5t-78 -115t-116 -75t-141.5 -26.5q-78 0 -144.5 26.5t-117 75t-79 115t-28.5 146.5z" />
    <glyph glyph-name="ellipsis" unicode="&#x2026;" horiz-adv-x="1538" 
d="M25 207q0 96 62.5 158.5t154.5 62.5q45 0 86 -16.5t69.5 -46t46 -70.5t17.5 -88t-17.5 -87t-46 -70t-69.5 -47t-86 -17t-85 17t-69 47t-46 70t-17 87zM551 207q0 96 62.5 158.5t154.5 62.5q45 0 86 -16.5t69.5 -46t46 -70.5t17.5 -88t-17.5 -87t-46 -70t-69.5 -47
t-86 -17t-85 17t-68.5 47t-46 70t-17.5 87zM1077 207q0 96 62.5 158.5t154.5 62.5q45 0 86 -16.5t70 -46t46 -70.5t17 -88t-17 -87t-46 -70t-70 -47t-86 -17t-85 17t-68.5 47t-46 70t-17.5 87z" />
    <glyph glyph-name="uni202F" unicode="&#x202f;" horiz-adv-x="354" 
 />
    <glyph glyph-name="guilsinglleft" unicode="&#x2039;" horiz-adv-x="618" 
d="M51 455l189 344h327l-188 -344l188 -344h-327z" />
    <glyph glyph-name="guilsinglright" unicode="&#x203a;" horiz-adv-x="618" 
d="M51 111l189 344l-189 344h328l188 -344l-188 -344h-328z" />
    <glyph glyph-name="uni205F" unicode="&#x205f;" horiz-adv-x="443" 
 />
    <glyph glyph-name="Euro" unicode="&#x20ac;" horiz-adv-x="1189" 
d="M41 442v158h84v29v39h-84v157h104q8 33 19 66q41 119 112.5 205t171 134t220.5 48q109 0 191.5 -36t143 -97.5t96.5 -144t50 -179.5h-344q-10 45 -42 80t-95 35q-47 0 -80 -23.5t-53 -64.5q-6 -10 -11 -23h211l-30 -157h-207v-39v-29h190l-31 -158h-137q6 -18 15 -32
q20 -41 53 -64.5t80 -23.5q63 0 95 34.5t42 79.5h344q-14 -96 -50 -179t-96.5 -144.5t-143.5 -97t-191 -35.5q-121 0 -220.5 48t-171 134t-112.5 205q-12 37 -21 75h-102z" />
    <glyph glyph-name="trademark" unicode="&#x2122;" horiz-adv-x="1263" 
d="M41 1087v170h496v-170h-156v-350h-186v350h-154zM600 737v520h213l88 -278l88 278h213v-520h-162v279l-88 -279h-104l-88 279v-279h-160z" />
    <glyph glyph-name="uni25FC" unicode="&#x25fc;" horiz-adv-x="931" 
d="M0 0v932h932v-932h-932z" />
    </font>
</defs>
</svg>
