<svg xmlns="http://www.w3.org/2000/svg" width="15" height="18" viewBox="0 0 15 18">
    <g fill="none" fill-rule="evenodd">
        <g fill="#FFF" fill-rule="nonzero">
            <g>
                <g>
                    <path d="M7.13 14.17c-.21 0-.38-.17-.38-.38V9.87c0-.21.17-.38.38-.38h3.92c.21 0 .38.17.38.38s-.17.38-.38.38H7.5v3.55c0 .2-.16.37-.37.37z" transform="translate(-619 -864) translate(619 864) translate(2.8 3.83)"/>
                    <path d="M7.13 14.17H.38c-.21 0-.38-.17-.38-.38V.38C0 .17.17 0 .38 0h10.67c.21 0 .38.17.38.38v9.49c0 .1-.04.2-.11.27L7.4 14.06c-.08.07-.17.11-.27.11zm-6.38-.75h6.22l3.7-3.7V.75H.75v12.67z" transform="translate(-619 -864) translate(619 864) translate(2.8 3.83)"/>
                    <path d="M6.42 3.23H2.58c-.21 0-.38-.17-.38-.38s.17-.38.38-.38h3.84c.21 0 .38.17.38.38s-.17.38-.38.38zM8.95 5.21H2.58c-.21 0-.38-.17-.38-.38s.17-.38.38-.38h6.37c.21 0 .38.17.38.38s-.17.38-.38.38zM8.95 7.18H2.58c-.21 0-.38-.17-.38-.38s.17-.38.38-.38h6.37c.21 0 .38.17.38.38s-.17.38-.38.38zM5.25 9.16H2.58c-.21 0-.38-.17-.38-.38s.17-.38.38-.38h2.67c.21 0 .38.17.38.38s-.17.38-.38.38z" transform="translate(-619 -864) translate(619 864) translate(2.8 3.83)"/>
                </g>
                <path d="M2.98 15.29H.38c-.21 0-.38-.17-.38-.38V1.03C0 .82.17.65.38.65h2.39c.21 0 .38.17.38.38s-.17.38-.38.38H.76v13.14h2.22c.21 0 .38.17.38.38 0 .19-.17.36-.38.36zM11.17 4.32c-.21 0-.38-.17-.38-.38V1.4H8.75c-.21 0-.38-.17-.38-.38s.17-.38.38-.38h2.41c.21 0 .38.17.38.38v2.91c.01.22-.16.39-.37.39z" transform="translate(-619 -864) translate(619 864)"/>
                <path d="M7.99 2.22H3.58c-.61 0-1.11-.5-1.11-1.11C2.47.5 2.96 0 3.58 0h4.41C8.6 0 9.1.5 9.1 1.11c0 .61-.5 1.11-1.11 1.11zM3.58.75c-.2 0-.36.16-.36.36 0 .2.16.36.36.36h4.41c.2 0 .36-.16.36-.36 0-.2-.16-.36-.36-.36H3.58z" transform="translate(-619 -864) translate(619 864)"/>
            </g>
        </g>
    </g>
</svg>
