<svg xmlns="http://www.w3.org/2000/svg" width="9" height="18" viewBox="0 0 9 18">
    <g fill="none" fill-rule="evenodd">
        <g fill="#004AB7" fill-rule="nonzero">
            <g>
                <path d="M0 1.73c.22-.22.48-.44.76-.65.28-.21.59-.39.93-.55.34-.16.7-.29 1.1-.39.4-.09.83-.14 1.29-.14.58 0 1.13.09 1.64.26s.97.42 1.35.75c.39.32.69.72.92 1.19.23.47.34.99.34 1.58 0 .63-.1 1.17-.29 1.63-.2.46-.44.86-.74 1.2-.3.34-.62.65-.97.91s-.67.51-.98.73c-.3.23-.56.46-.77.69-.21.23-.33.49-.34.77l-.15 2.04h-.81l-.06-2.13v-.06c0-.34.1-.64.3-.9.2-.26.45-.51.74-.75s.61-.48.96-.73c.34-.25.66-.53.96-.84.29-.31.54-.67.74-1.08.2-.41.3-.89.3-1.44 0-.45-.09-.85-.26-1.2-.18-.35-.41-.65-.71-.9-.3-.24-.64-.43-1.03-.56-.39-.13-.8-.19-1.22-.19-.55 0-1.02.07-1.43.22-.4.14-.74.31-1.01.48-.28.18-.49.34-.65.49-.16.15-.27.22-.32.22-.12 0-.22-.05-.27-.15L0 1.73zm2.51 15.12c0-.16.03-.31.09-.45s.14-.26.24-.37c.1-.1.22-.19.36-.25.14-.06.29-.09.45-.09.16 0 .31.03.45.09s.26.14.37.25c.1.1.19.23.25.37.06.14.09.29.09.45 0 .17-.03.32-.09.45-.06.14-.15.26-.25.36-.1.1-.23.18-.37.24-.13.07-.28.1-.44.1-.32 0-.6-.11-.82-.33-.22-.22-.33-.49-.33-.82z" transform="translate(-135 -690) translate(135 690)"/>
            </g>
        </g>
    </g>
</svg>
