<svg xmlns="http://www.w3.org/2000/svg" width="15" height="18" viewBox="0 0 15 18">
    <g fill="none" fill-rule="evenodd">
        <g fill="#004AB7" fill-rule="nonzero">
            <g>
                <path d="M10.03 18c-.2 0-.37-.16-.37-.37v-4.41c0-.2.16-.37.37-.37h4.41c.2 0 .37.16.37.37 0 .2-.16.37-.37.37H10.4v4.04c-.01.21-.17.37-.37.37z" transform="translate(-661 -689) translate(661 689)"/>
                <path d="M10.03 18h-7.6c-.2 0-.37-.16-.37-.37V2.55c0-.2.16-.37.37-.37h12c.2 0 .37.16.37.37v10.68c0 .1-.04.19-.11.26l-4.41 4.41c-.06.06-.16.1-.25.1zm-7.23-.73h7.07l4.19-4.19V2.92H2.8v14.35z" transform="translate(-661 -689) translate(661 689)"/>
                <path d="M9.23 5.7H4.91c-.2 0-.37-.16-.37-.37 0-.2.16-.37.37-.37h4.32c.2 0 .37.16.37.37s-.17.37-.37.37zM12.08 7.48H4.91c-.2 0-.37-.16-.37-.37 0-.2.16-.37.37-.37h7.16c.2 0 .37.16.37.37.01.2-.16.37-.36.37zM12.08 9.25H4.91c-.2 0-.37-.16-.37-.37 0-.2.16-.37.37-.37h7.16c.2 0 .37.16.37.37.01.21-.16.37-.36.37zM7.91 11.03h-3c-.2 0-.37-.16-.37-.37 0-.2.16-.37.37-.37h3c.2 0 .37.16.37.37s-.16.37-.37.37z" transform="translate(-661 -689) translate(661 689)"/>
                <path d="M.37 16.26c-.2 0-.37-.16-.37-.37V1.1C0 .49.49 0 1.1 0h11.27c.2 0 .37.16.37.37 0 .2-.16.37-.37.37H1.1c-.2 0-.37.17-.37.37V15.9c0 .19-.16.36-.36.36z" transform="translate(-661 -689) translate(661 689)"/>
            </g>
        </g>
    </g>
</svg>
