<svg xmlns="http://www.w3.org/2000/svg" width="18" height="18" viewBox="0 0 18 18">
    <g fill="none" fill-rule="evenodd">
        <g fill="#004AB7" fill-rule="nonzero">
            <g>
                <path d="M16.65 2.9H.39C.17 2.9 0 2.72 0 2.51c0-.21.18-.39.39-.39h16.26c.22 0 .39.18.39.39 0 .21-.17.39-.39.39z" transform="translate(-1293 -693) translate(1293 693)"/>
                <path d="M10.92 2.75C10.69 1.61 9.68.79 8.52.79s-2.17.83-2.4 1.96l-.77-.16C5.65 1.09 6.99 0 8.52 0s2.87 1.09 3.17 2.59l-.77.16zM13.8 18H3.24c-.61 0-1.13-.52-1.17-1.15L1.26 3.27c-.01-.22.15-.4.37-.41.21-.02.4.14.41.36l.81 13.58c.01.22.19.42.38.42h10.56c.19 0 .37-.19.38-.42l.81-13.58c.01-.22.2-.37.41-.37.22.01.38.2.37.41l-.81 13.58c-.02.65-.53 1.16-1.15 1.16z" transform="translate(-1293 -693) translate(1293 693)"/>
                <g>
                    <path d="M.912 10.122c-.21 0-.38-.16-.39-.37L.002.422c-.02-.22.15-.4.36-.42.22-.01.41.16.42.37l.52 9.34c.01.22-.15.4-.37.41h-.02zM6.852 10.122h-.02c-.22-.01-.38-.2-.37-.41l.52-9.34c.01-.22.2-.39.41-.37.22.01.38.2.37.41l-.52 9.34c-.01.21-.18.37-.39.37z" transform="translate(-1293 -693) translate(1293 693) translate(4.638 4.998)"/>
                </g>
                <path d="M8.52 15.12c-.22 0-.39-.18-.39-.39V5.4c0-.22.17-.4.39-.4s.39.18.39.39v9.34c0 .22-.17.39-.39.39z" transform="translate(-1293 -693) translate(1293 693)"/>
            </g>
        </g>
    </g>
</svg>
