<svg xmlns="http://www.w3.org/2000/svg" width="18" height="18" viewBox="0 0 18 18">
    <g fill="none" fill-rule="evenodd">
        <g fill="#004AB7" fill-rule="nonzero">
            <g>
                <path d="M17.61 18H.39c-.21 0-.39-.18-.39-.39V.39C0 .18.18 0 .39 0c.22 0 .39.18.39.39v16.82H17.6c.22 0 .39.18.39.39.01.22-.17.4-.38.4z" transform="translate(-956 -689) translate(956 689)"/>
                <path d="M6.14 15.2H3.23c-.22 0-.39-.18-.39-.39v-4.07c0-.22.18-.39.39-.39h2.91c.22 0 .39.18.39.39v4.07c0 .22-.17.39-.39.39zm-2.51-.79h2.12v-3.28H3.63v3.28zM17.38 15.2h-2.91c-.22 0-.39-.18-.39-.39V.39c0-.22.18-.39.39-.39h2.91c.22 0 .39.18.39.39V14.8c0 .23-.18.4-.39.4zm-2.52-.79h2.12V.79h-2.12v13.62zM11.76 15.2H8.85c-.22 0-.39-.18-.39-.39V5.68c0-.22.18-.39.39-.39h2.91c.22 0 .39.18.39.39v9.13c0 .22-.17.39-.39.39zm-2.52-.79h2.12V6.07H9.24v8.34z" transform="translate(-956 -689) translate(956 689)"/>
            </g>
        </g>
    </g>
</svg>
