<svg xmlns="http://www.w3.org/2000/svg" width="24" height="24" viewBox="0 0 24 24">
    <g fill="none" fill-rule="evenodd">
        <g>
            <g>
                <g>
                    <g>
                        <path d="M0 0L24 0 24 24 0 24z" transform="translate(-1088 -460) translate(99 370) translate(15 24) translate(974 66)"/>
                        <path fill="#FFF" fill-rule="nonzero" d="M12 2C6.48 2 2 6.48 2 12s4.48 10 10 10 10-4.48 10-10S17.52 2 12 2zm5 11h-4v4h-2v-4H7v-2h4V7h2v4h4v2z" transform="translate(-1088 -460) translate(99 370) translate(15 24) translate(974 66)"/>
                    </g>
                </g>
            </g>
        </g>
    </g>
</svg>
