<svg xmlns="http://www.w3.org/2000/svg" width="22" height="21" viewBox="0 0 22 21">
    <g fill="none" fill-rule="evenodd">
        <g fill="#FFF" fill-rule="nonzero">
            <g>
                <g>
                    <path d="M.483 20.2c-.13 0-.247-.047-.34-.14-.095-.095-.153-.236-.142-.365l.282-4.839c.012-.117.06-.223.141-.305L14.834.141c.094-.094.212-.141.341-.141.13 0 .247.047.34.14l4.546 4.546c.094.094.14.211.14.34 0 .13-.046.247-.14.341L5.65 19.777c-.083.082-.188.13-.306.141L.506 20.2H.483zm.74-5.109l-.247 4.122 4.122-.246 13.953-13.94-3.876-3.876L1.223 15.09z" transform="translate(-319 -395) translate(319 395)"/>
                    <path d="M17.148 7.61c-.117 0-.247-.047-.34-.14L12.72 3.381c-.187-.188-.187-.481 0-.67.188-.187.482-.187.67 0L17.477 6.8c.188.188.188.481 0 .67-.082.093-.2.14-.329.14z" transform="translate(-319 -395) translate(319 395)"/>
                    <path d="M3.783 16.888c-.117 0-.247-.047-.34-.14-.188-.189-.188-.482 0-.67l11.25-11.251c.188-.188.482-.188.67 0 .188.188.188.481 0 .67L4.112 16.746c-.082.094-.2.141-.329.141zM1.011 17.358c-.07 0-.129 0-.2.012l-.175.035-.141 2.349 2.255-.141c.023-.082.035-.165.047-.259.105-1.15-.682-1.996-1.786-1.996z" transform="translate(-319 -395) translate(319 395)"/>
                </g>
                <path d="M20.66 20.047H10.03c-.258 0-.481-.211-.481-.481 0-.259.21-.482.481-.482H20.66c.258 0 .481.212.481.482s-.211.481-.481.481z" transform="translate(-319 -395) translate(319 395)"/>
            </g>
        </g>
    </g>
</svg>
