<svg xmlns="http://www.w3.org/2000/svg" width="18" height="18" viewBox="0 0 18 18">
    <g fill="none" fill-rule="evenodd">
        <g fill="#001658" fill-rule="nonzero">
            <g>
                <path d="M9 18c-2.4 0-4.66-.94-6.36-2.64C.94 13.66 0 11.4 0 9c0-2.4.94-4.66 2.64-6.36C4.34.94 6.6 0 9 0c2.4 0 4.66.94 6.36 2.64 3.51 3.51 3.51 9.22 0 12.73C13.67 17.06 11.41 18 9 18zM9 .8c-2.19 0-4.25.85-5.8 2.4C1.65 4.75.8 6.81.8 9s.85 4.25 2.4 5.8c1.55 1.55 3.61 2.4 5.8 2.4s4.25-.85 5.8-2.4c3.2-3.2 3.2-8.4 0-11.6C13.25 1.65 11.19.8 9 .8z" transform="translate(-139 -594) translate(139 594)"/>
                <path d="M10.16 7.55l-1.2 4.17c-.07.24-.1.39-.1.47 0 .04.02.08.05.12.03.04.07.06.11.06.07 0 .13-.03.2-.09.18-.14.39-.41.63-.79l.2.12c-.59 1.03-1.22 1.54-1.88 1.54-.25 0-.46-.07-.61-.21-.15-.14-.23-.32-.23-.54 0-.14.03-.33.1-.55l.81-2.8c.08-.27.12-.47.12-.61 0-.09-.04-.16-.11-.23s-.18-.1-.3-.1c-.06 0-.13 0-.21.01l.08-.23 1.99-.32h.35v-.02zm-.36-2.7c.24 0 .45.08.61.25.16.17.25.37.25.61s-.08.44-.25.61c-.17.17-.37.25-.61.25-.23 0-.44-.08-.6-.25-.16-.17-.25-.37-.25-.61s.08-.44.25-.61c.17-.17.36-.25.6-.25z" transform="translate(-139 -594) translate(139 594)"/>
            </g>
        </g>
    </g>
</svg>
