<svg xmlns="http://www.w3.org/2000/svg" width="19" height="18" viewBox="0 0 19 18">
    <g fill="none" fill-rule="evenodd">
        <g fill="#004AB7" fill-rule="nonzero">
            <g>
                <path d="M14.87 12.18h-1.85c-.22 0-.39-.17-.39-.39s.17-.39.39-.39h1.85c.7 0 1.38-.3 1.86-.83.73-.66 1.11-1.53 1.11-2.46 0-1.81-1.48-3.29-3.29-3.29-.34 0-.68.05-1.01.16-.11.04-.23.03-.33-.04-.1-.06-.16-.17-.17-.29C12.82 2.44 10.98.78 8.76.78c-2.37 0-4.3 1.93-4.3 4.3 0 .28.03.56.09.84.02.12-.01.23-.08.32s-.18.14-.3.14h-.88C1.91 6.38.78 7.5.78 8.89c0 1.38 1.12 2.51 2.51 2.51H5.6c.22 0 .39.17.39.39s-.17.39-.39.39H3.29C1.48 12.18 0 10.71 0 8.89 0 7.08 1.47 5.6 3.29 5.6h.42c-.02-.17-.03-.35-.03-.52C3.68 2.28 5.96 0 8.76 0c2.47 0 4.54 1.74 4.99 4.13.26-.05.53-.08.8-.08 2.24 0 4.07 1.82 4.07 4.07 0 1.14-.49 2.24-1.34 3.01-.6.66-1.48 1.05-2.41 1.05z" transform="translate(-822 -691) translate(822 691)"/>
                <g>
                    <path d="M4.91 10.78c-.08 0-.16-.03-.23-.07L.16 7.42c-.17-.13-.21-.37-.09-.55.13-.17.37-.21.55-.09l4.29 3.13L9.2 6.79c.17-.13.42-.09.55.09.13.17.09.42-.09.55l-4.52 3.29c-.07.03-.15.06-.23.06z" transform="translate(-822 -691) translate(822 691) translate(4.4 7.22)"/>
                    <path d="M4.91 10.78c-.22 0-.39-.17-.39-.39v-10c0-.22.17-.39.39-.39s.39.17.39.39v10c0 .22-.18.39-.39.39z" transform="translate(-822 -691) translate(822 691) translate(4.4 7.22)"/>
                </g>
            </g>
        </g>
    </g>
</svg>
